<svg width="253" height="181" viewBox="0 0 253 181" fill="none" xmlns="http://www.w3.org/2000/svg">
<g clip-path="url(#clip0_1217_5280)">
<path d="M124.758 180.235H115.112V106H122.957C123.337 106 123.701 106.15 123.97 106.418C124.24 106.686 124.392 107.05 124.394 107.43L124.758 180.235Z" fill="#B4B9C4"/>
<path d="M116.014 180.628H12.4338V127.76H116.014V180.628Z" fill="white"/>
<path d="M75.1878 180.432H12.6304V127.957H115.817V139.802C115.805 150.574 111.521 160.902 103.904 168.518C96.2868 176.135 85.9596 180.42 75.1878 180.432Z" fill="#F0F3F5"/>
<path d="M123.187 108.109C123.135 108.207 123.094 108.311 123.066 108.419L119.495 122.186L115.621 129.524H12.8269V127.696L18.6793 122.186L25.5064 109.128C25.8077 108.551 26.2035 108.029 26.6773 107.584C27.7583 106.566 29.1866 106 30.6709 106H121.916C122.164 106 122.407 106.064 122.623 106.186C122.839 106.308 123.019 106.483 123.147 106.695C123.275 106.908 123.346 107.149 123.353 107.397C123.36 107.644 123.302 107.89 123.187 108.109Z" fill="#F0F3F5"/>
<path d="M116.014 180.628H12.4338V127.76H116.014V180.628ZM13.2201 179.842H115.228V128.546H13.2201V179.842Z" fill="#B4B9C4"/>
<path d="M121.403 115.151L119.495 122.186H18.6794L21.937 116.331L121.403 115.151Z" fill="#B4B9C4"/>
<path d="M32.7651 155.464H16.2534V156.378H32.7651V155.464Z" fill="white"/>
<path d="M32.7651 158.662H16.2534V159.576H32.7651V158.662Z" fill="white"/>
<path d="M32.7651 161.859H16.2534V162.773H32.7651V161.859Z" fill="white"/>
<path d="M22.6494 145.286C25.9295 145.286 28.5886 142.627 28.5886 139.346C28.5886 136.066 25.9295 133.407 22.6494 133.407C19.3693 133.407 16.7102 136.066 16.7102 139.346C16.7102 142.627 19.3693 145.286 22.6494 145.286Z" fill="white"/>
<path d="M87.7441 118.197H82.7V79.375H86.8022C87.0009 79.375 87.1915 79.4537 87.3323 79.5938C87.4732 79.734 87.5528 79.9242 87.5538 80.1229L87.7441 118.197Z" fill="#B4B9C4"/>
<path d="M83.1715 118.402H29.0039V90.7549H83.1715V118.402Z" fill="white"/>
<path d="M61.8213 118.299H29.1067V90.8574H83.0687V97.052C83.0623 102.685 80.8217 108.086 76.8384 112.069C72.8551 116.052 67.4545 118.293 61.8213 118.299Z" fill="#F0F3F5"/>
<path d="M86.9226 80.4777C86.8954 80.5292 86.8742 80.5837 86.8596 80.6401L84.9918 87.8397L82.9657 91.6767H29.2095V90.7211L32.27 87.8397L35.8402 81.0106C35.9979 80.7092 36.2048 80.4362 36.4526 80.2031C37.0179 79.6712 37.7648 79.375 38.541 79.375H86.258C86.3875 79.375 86.5149 79.4085 86.6277 79.4722C86.7405 79.5359 86.8349 79.6277 86.9017 79.7387C86.9686 79.8496 87.0057 79.976 87.0093 80.1055C87.013 80.2349 86.9831 80.3632 86.9226 80.4777Z" fill="#F0F3F5"/>
<path d="M83.1715 118.402H29.0039V90.7549H83.1715V118.402ZM29.4151 117.991H82.7603V91.1661H29.4151V117.991Z" fill="#B4B9C4"/>
<path d="M85.9894 84.1611L84.9916 87.8398H32.27L33.9735 84.7776L85.9894 84.1611Z" fill="#B4B9C4"/>
<path d="M39.6361 105.242H31.0012V105.72H39.6361V105.242Z" fill="white"/>
<path d="M39.6361 106.915H31.0012V107.393H39.6361V106.915Z" fill="white"/>
<path d="M39.6361 108.587H31.0012V109.065H39.6361V108.587Z" fill="white"/>
<path d="M34.3462 99.9198C36.0615 99.9198 37.4521 98.5293 37.4521 96.8139C37.4521 95.0986 36.0615 93.708 34.3462 93.708C32.6308 93.708 31.2402 95.0986 31.2402 96.8139C31.2402 98.5293 32.6308 99.9198 34.3462 99.9198Z" fill="white"/>
<path d="M236.401 180.601L236.37 180.434C235.859 177.62 235.968 174.728 236.688 171.96C237.408 169.192 238.722 166.614 240.539 164.405C241.568 163.174 242.748 162.078 244.051 161.142L244.175 161.052L244.229 161.195C244.877 162.904 245.695 164.615 246.068 165.373L246.32 159.718L246.463 159.642C247.121 159.29 247.869 159.142 248.611 159.219C249.353 159.296 250.056 159.593 250.628 160.072C251.219 160.547 251.655 161.189 251.878 161.914C252.102 162.639 252.103 163.415 251.882 164.141C251.687 164.805 251.502 165.494 251.324 166.161C250.71 168.451 250.076 170.819 248.846 172.813C247.9 174.313 246.632 175.583 245.133 176.53C243.634 177.477 241.942 178.078 240.181 178.287L236.401 180.601Z" fill="#F0F3F5"/>
<path d="M252.045 180.532C252.045 180.594 252.033 180.655 252.01 180.712C251.986 180.768 251.952 180.82 251.909 180.864C251.865 180.907 251.813 180.941 251.757 180.965C251.7 180.988 251.639 181 251.577 181H1.42268C1.2986 181 1.1796 180.951 1.09186 180.863C1.00412 180.775 0.954834 180.656 0.954834 180.532C0.954834 180.408 1.00412 180.289 1.09186 180.201C1.1796 180.114 1.2986 180.064 1.42268 180.064H251.577C251.639 180.064 251.7 180.076 251.757 180.1C251.813 180.123 251.865 180.158 251.909 180.201C251.952 180.245 251.986 180.296 252.01 180.353C252.033 180.41 252.045 180.471 252.045 180.532Z" fill="#B4B9C4"/>
<path d="M195.304 60.8293L188.144 59.8037C185.722 63.8531 184.862 74.6311 184.862 74.6311L177.854 91.2866C177.39 91.6018 177.017 92.0337 176.773 92.5388C176.529 93.0439 176.422 93.6044 176.464 94.1639C176.505 94.7234 176.693 95.2621 177.009 95.7258C177.325 96.1895 177.757 96.5618 178.262 96.8053C178.768 97.0488 179.329 97.1549 179.888 97.1128C180.447 97.0708 180.986 96.8821 181.449 96.5658C181.913 96.2495 182.284 95.8167 182.527 95.311C182.77 94.8053 182.876 94.2445 182.833 93.6851L194.338 74.2989L195.304 60.8293Z" fill="#EACC9E"/>
<path d="M194.165 40.9501C195.273 41.1218 196.33 41.5356 197.26 42.1621C198.19 42.7886 198.971 43.6123 199.546 44.5748C200.122 45.5373 200.478 46.6149 200.59 47.7308C200.702 48.8467 200.567 49.9735 200.194 51.0311L198.674 55.3379C198.674 55.3379 197.847 68.3057 194.692 71.9663L185.013 71.09C185.013 71.09 186.783 64.5476 185.424 61.3821C184.592 59.4435 184.638 52.7478 185.458 47.301C185.612 46.3119 185.959 45.3628 186.48 44.508C187.001 43.6532 187.685 42.9096 188.494 42.3197C189.303 41.7298 190.22 41.3052 191.193 41.0702C192.166 40.8352 193.176 40.7944 194.165 40.9501Z" fill="#B4B9C4"/>
<path d="M217.828 175.507L213.515 175.507L211.463 158.87L217.829 158.871L217.828 175.507Z" fill="#EACC9E"/>
<path d="M217.98 180.007L204.716 180.006V179.838C204.716 178.469 205.26 177.156 206.228 176.188C207.197 175.22 208.51 174.676 209.879 174.676H209.879L212.302 172.838L216.822 174.676L217.98 174.676L217.98 180.007Z" fill="#393C42"/>
<path d="M199.076 154.889L195.092 156.54L186.823 141.959L192.704 139.521L199.076 154.889Z" fill="#EACC9E"/>
<path d="M200.94 158.986L188.688 164.067L188.624 163.912C188.1 162.647 188.099 161.226 188.623 159.961C189.146 158.696 190.151 157.69 191.415 157.166L191.416 157.165L192.949 154.54L197.829 154.506L198.899 154.062L200.94 158.986Z" fill="#393C42"/>
<path d="M222.76 80.8682L192.15 84.0662L188.055 97.8568L173.875 120.645L189.532 149.41L195.046 144.461L189.753 121.233L205.55 104.178L208.546 102.936L210.923 166.219L219.718 166.364L223.567 96.534C225.416 90.3653 224.859 85.2718 222.76 80.8682Z" fill="#393C42"/>
<path d="M211.537 37.21L206.513 31.5527L198.574 32.4348L193.492 39.548C190.786 40.1699 188.422 41.8051 186.885 44.1172C185.349 46.4292 184.757 49.2421 185.231 51.9774C187.204 63.3348 193.906 74.3502 191.693 79.954C188.333 88.4604 188.128 91.9297 196.171 90.7371C204.213 89.5445 231.157 86.7952 225.933 81.5715C220.709 76.3478 219.562 67.6188 219.562 67.6188L219.352 47.6482C219.574 46.4437 219.545 45.2063 219.265 44.0138C218.986 42.8213 218.463 41.6996 217.729 40.7191C216.995 39.7387 216.066 38.9207 215 38.3168C213.935 37.7129 212.756 37.336 211.537 37.21L211.537 37.21Z" fill="#B4B9C4"/>
<path d="M201.719 30.1055C206.586 30.1055 210.532 26.16 210.532 21.293C210.532 16.426 206.586 12.4805 201.719 12.4805C196.852 12.4805 192.906 16.426 192.906 21.293C192.906 26.16 196.852 30.1055 201.719 30.1055Z" fill="#EACC9E"/>
<path d="M212.577 20.7699C212.184 22.5554 211.474 24.2561 210.481 25.7915C210.218 26.3151 209.824 26.7621 209.338 27.0896C209.092 27.2475 208.798 27.3142 208.508 27.2779C208.218 27.2416 207.95 27.1048 207.75 26.8911L207.536 26.7165C207.956 26.4574 208.332 26.1316 208.647 25.7518C208.804 25.5613 208.912 25.3361 208.964 25.0952C209.016 24.8542 209.009 24.6044 208.945 24.3664C208.869 24.1317 208.705 23.9357 208.487 23.8195C208.27 23.7033 208.016 23.6759 207.778 23.7432C207.262 23.9456 206.948 24.6919 206.409 24.5768C205.972 24.4815 205.881 23.9059 205.881 23.4534C205.896 21.0874 204.753 17.7251 203.868 17.8283C202.974 17.8772 202.078 17.7574 201.228 17.475C200.377 17.1922 199.479 17.0776 198.584 17.1376C198.521 17.1455 198.457 17.1575 198.39 17.1694C198.246 16.7198 198.049 16.2893 197.802 15.8871C197.83 16.3726 197.806 16.8597 197.731 17.34C197.019 17.6335 196.283 17.8659 195.532 18.0347C194.714 18.1499 192.916 20.5952 192.832 20.3451C192.689 19.8956 192.491 19.4651 192.245 19.0629C192.273 19.5484 192.249 20.0354 192.173 20.5158C192.169 20.5356 192.169 20.5515 192.165 20.5714C191.768 20.0434 191.526 19.4003 191.661 19.8926C190.331 16.8835 190.847 14.728 192.939 12.1913C193.347 11.6459 193.887 11.2129 194.507 10.9329C194.818 10.7964 195.159 10.7422 195.497 10.7756C195.835 10.8089 196.159 10.9288 196.437 11.1235C197.29 10.3412 198.337 9.80133 199.469 9.55982C200.601 9.31832 201.777 9.38397 202.876 9.74998C205.055 10.5082 206.734 10.9528 207.068 13.2394C208.87 12.9496 210.724 13.9737 211.716 15.5021C212.705 17.0344 212.907 18.9795 212.577 20.7699Z" fill="#393C42"/>
<path d="M205.431 93.9653H202.506V71.4541H204.885C205 71.4541 205.111 71.4997 205.192 71.581C205.274 71.6622 205.32 71.7725 205.321 71.8877L205.431 93.9653Z" fill="#393C42"/>
<path d="M202.78 94.0846H171.37V78.0527H202.78V94.0846Z" fill="white"/>
<path d="M190.399 94.0249H171.429V78.1123H202.72V81.7043C202.716 84.9708 201.417 88.1025 199.107 90.4122C196.798 92.722 193.666 94.0212 190.399 94.0249Z" fill="#5D74A2"/>
<path d="M204.955 72.0935C204.939 72.1234 204.927 72.155 204.918 72.1877L203.835 76.3625L202.66 78.5874H171.489V78.0333L173.264 76.3625L175.334 72.4026C175.425 72.2277 175.545 72.0695 175.689 71.9343C176.017 71.6258 176.45 71.4541 176.9 71.4541H204.569C204.644 71.4541 204.718 71.4735 204.784 71.5105C204.849 71.5474 204.904 71.6006 204.943 71.665C204.981 71.7293 205.003 71.8026 205.005 71.8777C205.007 71.9528 204.99 72.0271 204.955 72.0935Z" fill="#393C42"/>
<path d="M202.78 94.0846H171.37V78.0527H202.78V94.0846ZM171.608 93.8461H202.541V78.2912H171.608V93.8461Z" fill="#393C42"/>
<path d="M204.414 74.2295L203.835 76.3631H173.264L174.252 74.5873L204.414 74.2295Z" fill="#5D74A2"/>
<path d="M177.535 86.4541H172.528V86.7312H177.535V86.4541Z" fill="white"/>
<path d="M177.535 87.4238H172.528V87.7009H177.535V87.4238Z" fill="white"/>
<path d="M177.535 88.3936H172.528V88.6706H177.535V88.3936Z" fill="white"/>
<path d="M174.468 83.3676C175.462 83.3676 176.269 82.5613 176.269 81.5666C176.269 80.572 175.462 79.7656 174.468 79.7656C173.473 79.7656 172.667 80.572 172.667 81.5666C172.667 82.5613 173.473 83.3676 174.468 83.3676Z" fill="white"/>
<path d="M217.651 58.7707L210.49 57.7451C208.069 61.7945 207.208 72.5726 207.208 72.5726L200.201 89.228C199.737 89.5432 199.364 89.9751 199.12 90.4802C198.876 90.9853 198.769 91.5458 198.81 92.1053C198.852 92.6648 199.04 93.2035 199.355 93.6672C199.671 94.1309 200.104 94.5032 200.609 94.7467C201.114 94.9902 201.675 95.0963 202.234 95.0542C202.794 95.0122 203.332 94.8235 203.796 94.5072C204.259 94.1909 204.631 93.7581 204.874 93.2524C205.117 92.7467 205.222 92.1859 205.179 91.6265L216.685 72.2403L217.651 58.7707Z" fill="#EACC9E"/>
<path d="M213.77 38.8929C214.878 39.0645 215.935 39.4783 216.865 40.1048C217.795 40.7313 218.576 41.5551 219.152 42.5176C219.727 43.48 220.084 44.5576 220.196 45.6735C220.307 46.7894 220.172 47.9162 219.799 48.9738L218.279 53.2806C218.279 53.2806 220.193 66.2484 217.039 69.909L207.36 69.0328C207.36 69.0328 209.129 62.4903 207.771 59.3248C206.938 57.3862 206.985 50.6905 207.805 45.2437C208.431 41.0846 209.613 38.2492 213.77 38.8929Z" fill="#B4B9C4"/>
<path d="M152.969 17.4355C149.471 19.1802 146.809 22.2432 145.569 25.9506C144.329 29.6581 144.612 33.7062 146.357 37.2046C149.99 44.4895 163.119 56.914 173.594 58.7912C169.088 45.1098 175.354 31.2032 172.738 24.0476C169.944 16.4016 160.254 13.8023 152.969 17.4355Z" fill="#5D74A2"/>
<path d="M157.88 34.7619C160.535 34.7619 162.687 32.6096 162.687 29.9547C162.687 27.2997 160.535 25.1475 157.88 25.1475C155.225 25.1475 153.073 27.2997 153.073 29.9547C153.073 32.6096 155.225 34.7619 157.88 34.7619Z" fill="white"/>
<path d="M173.502 66.5072C175.241 66.5072 176.651 65.0975 176.651 63.3586C176.651 61.6196 175.241 60.21 173.502 60.21C171.763 60.21 170.353 61.6196 170.353 63.3586C170.353 65.0975 171.763 66.5072 173.502 66.5072Z" fill="#5D74A2"/>
<path opacity="0.2" d="M159.345 24.9013C159.976 24.8794 160.605 24.9821 161.197 25.2035C161.788 25.425 162.33 25.7608 162.792 26.1918C163.254 26.6229 163.626 27.1407 163.887 27.7156C164.149 28.2906 164.294 28.9115 164.316 29.5427C164.337 30.174 164.234 30.8033 164.012 31.3946C163.79 31.986 163.454 32.5278 163.022 32.9891C162.591 33.4504 162.073 33.8222 161.498 34.0831C160.922 34.3441 160.302 34.4892 159.67 34.51C160.74 34.1121 161.633 33.3465 162.19 32.3501C162.747 31.3537 162.931 30.1917 162.71 29.072C162.488 27.9522 161.875 26.9479 160.981 26.2387C160.086 25.5296 158.969 25.1619 157.828 25.2014C158.314 25.0202 158.826 24.9189 159.345 24.9013Z" fill="#222429"/>
<path opacity="0.2" d="M172.763 24.0507C175.378 31.2062 169.113 45.1128 173.619 58.7943C172.63 58.6122 171.656 58.3573 170.705 58.0316C167.034 44.8058 172.796 31.5902 170.269 24.6766C168.007 18.4889 161.23 15.6071 154.866 16.6584C161.851 14.2762 170.202 17.0438 172.763 24.0507Z" fill="#222429"/>
<path d="M25.1963 90.4395C21.5749 90.3525 18.0674 91.7077 15.4452 94.2069C12.8231 96.7061 11.3011 100.145 11.2142 103.766C11.0331 111.307 16.4023 127.172 24.1683 133.249C26.4064 120.091 37.564 111.416 38.5226 104.422C39.547 96.9483 32.7373 90.6206 25.1963 90.4395Z" fill="#B4B9C4"/>
<path d="M23.7935 107.275C26.2536 107.275 28.2479 105.281 28.2479 102.821C28.2479 100.361 26.2536 98.3662 23.7935 98.3662C21.3334 98.3662 19.3391 100.361 19.3391 102.821C19.3391 105.281 21.3334 107.275 23.7935 107.275Z" fill="white"/>
<path d="M22.1136 139.867C23.7249 139.867 25.0311 138.561 25.0311 136.95C25.0311 135.338 23.7249 134.032 22.1136 134.032C20.5023 134.032 19.196 135.338 19.196 136.95C19.196 138.561 20.5023 139.867 22.1136 139.867Z" fill="#B4B9C4"/>
<path opacity="0.2" d="M27.1832 99.3166C28.2455 99.8334 29.059 100.751 29.4448 101.868C29.8305 102.984 29.7569 104.208 29.2401 105.271C28.9843 105.797 28.6273 106.267 28.1896 106.655C27.7519 107.043 27.242 107.341 26.6892 107.532C25.5726 107.918 24.3485 107.844 23.2861 107.328C24.3348 107.465 25.3982 107.225 26.2861 106.651C27.174 106.076 27.8284 105.204 28.1321 104.191C28.4358 103.178 28.3691 102.089 27.9438 101.121C27.5186 100.153 26.7625 99.3672 25.8111 98.9053C26.2876 98.9675 26.751 99.1064 27.1832 99.3166Z" fill="#222429"/>
<path opacity="0.2" d="M38.5413 104.435C37.5827 111.429 26.4252 120.104 24.187 133.262C23.4561 132.685 22.769 132.054 22.1311 131.375C24.8553 118.952 35.3014 110.624 36.2276 103.867C37.0566 97.8188 32.7545 92.5217 27.0865 90.625C33.8396 91.7007 39.4801 97.5862 38.5413 104.435Z" fill="#222429"/>
<path d="M77.0134 32.4014C75.9956 32.468 75.044 32.9291 74.361 33.6866C73.678 34.4441 73.3176 35.4383 73.3564 36.4575C73.3675 36.6645 73.3958 36.8703 73.4409 37.0727L61.8833 44.3539L68.2729 47.1799L78.2686 39.8323C79.0933 39.5803 79.8114 39.0624 80.3109 38.3594C80.8103 37.6564 81.0629 36.8078 81.0294 35.9461C81.0056 35.456 80.8855 34.9753 80.6759 34.5316C80.4663 34.0879 80.1714 33.6898 79.808 33.36C79.4446 33.0303 79.0198 32.7753 78.5579 32.6098C78.0959 32.4442 77.6059 32.3712 77.1158 32.395C77.0816 32.3967 77.0475 32.3988 77.0134 32.4014Z" fill="#EACC9E"/>
<path d="M65.8685 41.0444L68.7329 46.9544L57.4073 54.2425C56.6014 54.7656 55.6752 55.0738 54.7166 55.1381C53.7581 55.2023 52.799 55.0203 51.9306 54.6094C50.8748 54.1041 50.0118 53.2692 49.4718 52.2307C48.9318 51.1922 48.744 50.0063 48.9367 48.8517L52.6116 27.8715C52.8583 26.4033 53.6583 25.0855 54.8469 24.1891C56.0355 23.2926 57.5225 22.8857 59.0019 23.0521C59.7225 23.1309 60.4205 23.3508 61.0561 23.6994C61.6917 24.048 62.2524 24.5183 62.7063 25.0836C63.1601 25.6488 63.4981 26.2979 63.7011 26.9938C63.9041 27.6897 63.968 28.4188 63.8892 29.1394C63.883 29.1963 63.8758 29.2531 63.8678 29.3099C63.8401 29.5115 63.8014 29.7114 63.7521 29.9089L59.7402 44.8296L65.8685 41.0444Z" fill="#5D74A2"/>
<path d="M66.6732 50.2061H50.4763V66.4029H66.6732V50.2061Z" fill="#EACC9E"/>
<path d="M105.084 97.9071L111.27 95.8262L114.715 112.664L110.523 114.074L105.084 97.9071Z" fill="#EACC9E"/>
<path d="M94.6001 96.6131L100.736 94.3887L104.571 111.141L100.414 112.648L94.6001 96.6131Z" fill="#EACC9E"/>
<path d="M51.0574 70.6347C47.8111 92.2771 91.0421 79.4817 91.0421 79.4817L104.597 98.1804L112.532 96.7376C112.532 96.7376 108.962 85.5123 102.585 70.4641C99.7528 63.7813 67.5962 65.4142 67.5962 65.4142L66.9285 60.1742L48.5325 59.8135L51.0574 70.6347Z" fill="#393C42"/>
<path d="M82.2852 80.932L92.2818 74.7061C99.6001 89.3196 101.757 95.6484 101.757 95.6484L94.8387 97.5941L82.2852 80.932Z" fill="#393C42"/>
<path d="M60.3104 23.8864L57.0503 19.6958L52.3998 19.4941L51.9356 23.4354L49.6314 24.498C47.3305 33.2391 46.9752 42.3786 48.5904 51.272C48.8992 51.5628 49.1249 51.9307 49.2441 52.3377C49.3633 52.7448 49.3717 53.1763 49.2685 53.5877L49.1191 54.1833L49.1329 54.2051C49.6232 54.9788 49.7896 55.9143 49.5961 56.8096L48.4957 58.7649C48.1008 59.4681 47.8638 60.2489 47.8012 61.0529C47.7386 61.857 47.8518 62.665 48.1331 63.4209C48.4144 64.1767 48.857 64.8622 49.43 65.4297C50.0031 65.9972 50.6929 66.433 51.4514 66.7069C58.2157 69.1588 64.5566 70.072 69.2476 63.1918L70.7227 39.2156L60.3104 23.8864Z" fill="#5D74A2"/>
<path d="M56.8951 20.8082C61.6438 20.8082 65.4935 16.9585 65.4935 12.2098C65.4935 7.46098 61.6438 3.61133 56.8951 3.61133C52.1463 3.61133 48.2966 7.46098 48.2966 12.2098C48.2966 16.9585 52.1463 20.8082 56.8951 20.8082Z" fill="#EACC9E"/>
<path d="M52.5785 1.8447C48.9378 1.91464 46.0502 5.29165 46.1289 9.38746C43.4347 12.1987 42.7821 26.026 45.0332 29.7045C49.1513 30.1825 51.6561 19.9943 55.2675 21.4671L55.7434 19.2436L56.8218 22.1391C57.7396 22.5622 58.6505 23.0266 59.5544 23.5324C60.204 20.5528 60.0429 17.6565 58.297 15.1338C56.7459 12.8927 60.5206 10.232 63.2201 10.608L63.1805 8.54964L63.8586 10.5958C64.9109 11.369 66.0749 11.0891 67.2685 10.5303C69.2041 0.470372 54.2182 -2.28068 52.5785 1.8447Z" fill="#393C42"/>
<path d="M108.618 116.921L111.374 116.561L111.526 113.895L113.126 116.333L120.435 115.378C120.786 115.332 121.112 115.176 121.367 114.931C121.622 114.687 121.793 114.367 121.853 114.019C121.914 113.671 121.861 113.312 121.704 112.996C121.546 112.68 121.292 112.422 120.978 112.261L114.614 108.992L114.27 106.361L108.178 107.53L108.618 116.921Z" fill="#393C42"/>
<path d="M101.339 116.945L103.839 115.731L103.139 113.154L105.428 114.959L112.059 111.739C112.377 111.585 112.637 111.333 112.802 111.021C112.967 110.708 113.027 110.351 112.974 110.001C112.921 109.652 112.758 109.329 112.509 109.078C112.259 108.828 111.936 108.665 111.587 108.611L104.516 107.525L103.357 105.139L97.9485 108.176L101.339 116.945Z" fill="#393C42"/>
<path d="M63.5957 59.6073H66.6615V36.0117H64.1682C64.0474 36.0117 63.9315 36.0595 63.8459 36.1447C63.7603 36.2299 63.7119 36.3455 63.7113 36.4663L63.5957 59.6073Z" fill="#B4B9C4"/>
<path d="M66.375 42.9277H99.2979V59.7319H66.375V42.9277Z" fill="white"/>
<path d="M66.4375 46.7553V42.9902H99.2355V59.6694H79.3516C75.9278 59.6655 72.6452 58.3037 70.2242 55.8827C67.8032 53.4616 66.4414 50.1791 66.4375 46.7553Z" fill="#F0F3F5"/>
<path d="M64.0951 36.6819C64.1117 36.7132 64.1245 36.7464 64.1334 36.7806L65.2687 41.1565L66.5001 43.4887H99.173V42.9078L97.3128 41.1566L95.1428 37.0059C95.0471 36.8226 94.9213 36.6567 94.7707 36.515C94.4271 36.1917 93.9731 36.0117 93.5013 36.0117H64.4991C64.4203 36.0117 64.3429 36.0321 64.2744 36.0708C64.2058 36.1095 64.1484 36.1653 64.1078 36.2328C64.0672 36.3002 64.0446 36.377 64.0424 36.4557C64.0402 36.5344 64.0584 36.6123 64.0951 36.6819Z" fill="#F0F3F5"/>
<path d="M66.375 42.9277H99.2979V59.7319H66.375V42.9277ZM99.048 59.4819H66.6249V43.1777H99.048L99.048 59.4819Z" fill="#B4B9C4"/>
<path d="M64.6621 38.9199L65.2687 41.1561H97.3129L96.2773 39.295L64.6621 38.9199Z" fill="#B4B9C4"/>
<path d="M98.0839 51.7334H92.8357V52.0238H98.0839V51.7334Z" fill="white"/>
<path d="M98.0839 52.75H92.8357V53.0404H98.0839V52.75Z" fill="white"/>
<path d="M98.0839 53.7666H92.8357V54.057H98.0839V53.7666Z" fill="white"/>
<path d="M96.0509 48.4982C97.0934 48.4982 97.9386 47.653 97.9386 46.6104C97.9386 45.5678 97.0934 44.7227 96.0509 44.7227C95.0083 44.7227 94.1631 45.5678 94.1631 46.6104C94.1631 47.653 95.0083 48.4982 96.0509 48.4982Z" fill="white"/>
<path d="M80.8223 18.0864C83.0412 18.0331 85.1904 18.8635 86.7971 20.3949C88.4039 21.9262 89.3364 24.0331 89.3897 26.2521C89.5007 30.8728 86.2107 40.5941 81.4521 44.3176C80.0807 36.255 73.244 30.9394 72.6566 26.6538C72.0289 22.0746 76.2015 18.1974 80.8223 18.0864Z" fill="#B4B9C4"/>
<path d="M81.682 28.4031C83.1894 28.4031 84.4114 27.1811 84.4114 25.6737C84.4114 24.1663 83.1894 22.9443 81.682 22.9443C80.1746 22.9443 78.9526 24.1663 78.9526 25.6737C78.9526 27.1811 80.1746 28.4031 81.682 28.4031Z" fill="white"/>
<path d="M82.7113 48.3732C83.6986 48.3732 84.499 47.5729 84.499 46.5855C84.499 45.5982 83.6986 44.7979 82.7113 44.7979C81.724 44.7979 80.9236 45.5982 80.9236 46.5855C80.9236 47.5729 81.724 48.3732 82.7113 48.3732Z" fill="#B4B9C4"/>
<path opacity="0.2" d="M79.605 23.5265C79.2827 23.6832 78.9944 23.902 78.7566 24.1702C78.5189 24.4384 78.3362 24.7508 78.2192 25.0896C78.1022 25.4283 78.053 25.7868 78.0745 26.1446C78.096 26.5024 78.1878 26.8524 78.3446 27.1747C78.5014 27.4971 78.7201 27.7853 78.9883 28.0231C79.2565 28.2609 79.5689 28.4435 79.9077 28.5605C80.2465 28.6776 80.605 28.7267 80.9627 28.7052C81.3205 28.6837 81.6706 28.5919 81.9929 28.4351C81.3503 28.5195 80.6987 28.3725 80.1546 28.0203C79.6106 27.6681 79.2096 27.1338 79.0235 26.5131C78.8374 25.8923 78.8783 25.2255 79.1389 24.6321C79.3995 24.0387 79.8627 23.5575 80.4457 23.2744C80.1537 23.3125 79.8698 23.3976 79.605 23.5265Z" fill="#222429"/>
<path opacity="0.2" d="M72.6453 26.6621C73.2328 30.9476 80.0695 36.2632 81.4409 44.3258C81.8887 43.972 82.3098 43.5854 82.7006 43.1694C81.0314 35.5571 74.6306 30.4547 74.0631 26.3141C73.5551 22.6082 76.1912 19.3624 79.6642 18.2002C75.5263 18.8593 72.0701 22.4656 72.6453 26.6621Z" fill="#222429"/>
<path d="M75.9601 40.7832C74.943 40.7078 73.9366 41.0324 73.155 41.6878C72.3735 42.3431 71.8786 43.2776 71.7755 44.2923C71.7578 44.4989 71.7572 44.7066 71.7738 44.9133L59.3174 50.5196L65.2529 54.2052L76.1717 48.3163C77.0234 48.1813 77.8065 47.7681 78.3987 47.1412C78.9908 46.5143 79.3588 45.709 79.4452 44.851C79.535 43.8641 79.2291 42.8818 78.5947 42.1205C77.9603 41.3591 77.0494 40.8809 76.0625 40.7911C76.0284 40.788 75.9943 40.7853 75.9601 40.7832Z" fill="#EACC9E"/>
<path d="M63.7232 47.7958L65.7395 54.0463L53.5118 59.6916C52.6412 60.0977 51.6811 60.2745 50.7229 60.205C49.7647 60.1355 48.8402 59.8222 48.0372 59.2947C47.0618 58.6477 46.3231 57.7011 45.9325 56.5977C45.5419 55.4943 45.5205 54.2938 45.8716 53.1772L52.4234 32.9102C52.8715 31.4905 53.8466 30.2965 55.1482 29.5737C56.4497 28.851 57.9788 28.6544 59.4208 29.0245C60.1235 29.2026 60.7842 29.5173 61.3653 29.9507C61.9463 30.3842 62.4363 30.9278 62.8073 31.5506C63.1782 32.1733 63.4229 32.8631 63.5273 33.5804C63.6317 34.2978 63.5938 35.0287 63.4157 35.7313C63.4017 35.7869 63.3867 35.8422 63.3709 35.8972C63.3154 36.093 63.2494 36.2857 63.1732 36.4743L57.1289 50.6937L63.7232 47.7958Z" fill="#5D74A2"/>
</g>
<defs>
<clipPath id="clip0_1217_5280">
<rect width="251.09" height="181" fill="white" transform="translate(0.954834)"/>
</clipPath>
</defs>
</svg>
