<svg width="317" height="181" viewBox="0 0 317 181" fill="none" xmlns="http://www.w3.org/2000/svg">
<g clip-path="url(#clip0_1217_5455)">
<path d="M207.718 159.382L203.593 165.867L205.996 157.424C200.923 152.131 193.9 148.259 193.9 148.259C193.9 148.259 185.253 162.471 187.58 171.213C189.908 179.956 195.918 181.624 202.329 179.918C208.74 178.211 213.124 173.775 210.797 165.032C210.279 163.087 209.153 161.176 207.718 159.382Z" fill="#F0F3F5"/>
<path d="M202.26 166.513L202.375 166.944C203.683 171.96 203.879 176.093 202.954 179.286C202.941 179.333 202.926 179.378 202.913 179.425L202.697 179.361L202.491 179.298C203.539 175.836 203.071 171.463 201.931 167.087C201.896 166.946 201.86 166.803 201.82 166.66C201.321 164.812 200.71 162.972 200.045 161.202C199.994 161.065 199.941 160.926 199.888 160.787C198.998 158.456 198.026 156.262 197.125 154.37C197.062 154.236 196.996 154.103 196.932 153.971C195.393 150.776 194.089 148.512 193.796 148.012C193.762 147.95 193.741 147.917 193.737 147.909L193.924 147.797L193.926 147.795L194.115 147.683C194.12 147.691 194.188 147.803 194.308 148.013C194.761 148.797 195.965 150.932 197.353 153.802C197.415 153.932 197.48 154.065 197.543 154.199C198.276 155.733 199.053 157.459 199.792 159.291C199.978 159.751 200.156 160.206 200.327 160.657C200.382 160.795 200.435 160.934 200.485 161.071C201.204 162.984 201.796 164.798 202.26 166.513Z" fill="white"/>
<path d="M197.353 153.801C197.215 153.859 197.075 153.917 196.932 153.971C196.543 154.118 196.147 154.246 195.745 154.353C194.033 154.811 192.24 154.879 190.498 154.553C190.439 154.69 190.379 154.826 190.318 154.966C192.155 155.327 194.05 155.263 195.859 154.779C196.288 154.665 196.71 154.528 197.125 154.369C197.266 154.316 197.406 154.258 197.543 154.199C198.678 153.715 199.733 153.062 200.671 152.262C200.548 152.169 200.428 152.078 200.311 151.988C199.419 152.735 198.423 153.346 197.353 153.801Z" fill="white"/>
<path d="M200.327 160.656C200.182 160.704 200.036 160.747 199.888 160.786C199.844 160.8 199.797 160.813 199.752 160.825C197.897 161.319 195.949 161.357 194.076 160.936C192.202 160.514 190.458 159.646 188.993 158.405C188.941 158.554 188.889 158.703 188.84 158.853C190.355 160.1 192.146 160.968 194.063 161.385C195.98 161.802 197.97 161.756 199.866 161.252C199.926 161.236 199.986 161.22 200.045 161.202C200.193 161.16 200.339 161.116 200.485 161.071C202.732 160.348 204.723 158.993 206.22 157.168C206.118 157.06 206.016 156.953 205.912 156.846C204.461 158.632 202.52 159.956 200.327 160.656Z" fill="white"/>
<path d="M202.261 166.513C202.115 166.566 201.968 166.614 201.82 166.66C201.662 166.709 201.503 166.756 201.343 166.799C198.848 167.46 196.207 167.295 193.814 166.329C191.421 165.363 189.406 163.649 188.069 161.441C188.019 161.64 187.969 161.836 187.923 162.033C189.347 164.211 191.421 165.885 193.85 166.817C196.28 167.749 198.941 167.892 201.456 167.225C201.616 167.183 201.776 167.138 201.931 167.088C202.082 167.043 202.229 166.995 202.375 166.944C205.329 165.905 207.777 163.783 209.224 161.006C209.137 160.861 209.045 160.718 208.952 160.574C207.578 163.349 205.178 165.479 202.261 166.513Z" fill="white"/>
<path d="M186.466 11.6989L182.341 18.1839L184.744 9.74162C179.671 4.44837 172.648 0.576172 172.648 0.576172C172.648 0.576172 164.001 14.7883 166.328 23.5306C168.656 32.273 174.666 33.9419 181.077 32.2351C187.488 30.5283 191.872 26.0921 189.545 17.3498C189.027 15.4039 187.901 13.4936 186.466 11.6989Z" fill="#F0F3F5"/>
<path d="M181.009 18.8306L181.124 19.2615C182.432 24.2773 182.627 28.4104 181.702 31.6036C181.69 31.6504 181.674 31.6956 181.662 31.7424L181.446 31.6787L181.239 31.6149C182.287 28.1537 181.819 23.78 180.68 19.4048C180.644 19.2634 180.608 19.1199 180.568 18.9776C180.069 17.1297 179.458 15.2889 178.793 13.5196C178.743 13.3822 178.69 13.2433 178.637 13.1043C177.747 10.7735 176.774 8.57892 175.873 6.68738C175.81 6.55339 175.745 6.41998 175.68 6.28869C174.142 3.09332 172.838 0.829335 172.545 0.329362C172.51 0.267767 172.49 0.23435 172.485 0.22639L172.673 0.114833L172.674 0.112129L172.864 0C172.868 0.00797125 172.937 0.11992 173.057 0.330148C173.51 1.11415 174.713 3.24955 176.101 6.1195C176.163 6.24922 176.228 6.38264 176.291 6.51662C177.024 8.05088 177.801 9.7767 178.54 11.6086C178.727 12.0684 178.905 12.5235 179.075 12.974C179.13 13.1123 179.183 13.2513 179.233 13.3887C179.953 15.3012 180.545 17.1152 181.009 18.8306Z" fill="white"/>
<path d="M176.101 6.11982C175.963 6.17709 175.823 6.2349 175.68 6.28901C175.291 6.43658 174.895 6.56413 174.493 6.67118C172.781 7.12939 170.988 7.19766 169.246 6.87096C169.187 7.00787 169.127 7.14479 169.066 7.2844C170.903 7.64514 172.798 7.58133 174.607 7.09784C175.036 6.98352 175.458 6.8466 175.873 6.68767C176.014 6.63412 176.154 6.5763 176.291 6.51692C177.426 6.03359 178.481 5.38074 179.42 4.58068C179.297 4.48777 179.176 4.39642 179.059 4.30664C178.167 5.05338 177.171 5.66437 176.101 6.11982Z" fill="white"/>
<path d="M179.075 12.9744C178.93 13.0221 178.784 13.0656 178.636 13.1047C178.592 13.1188 178.545 13.1313 178.501 13.1432C176.645 13.6373 174.697 13.6753 172.824 13.254C170.95 12.8327 169.206 11.9646 167.741 10.7238C167.689 10.8723 167.637 11.0209 167.588 11.1711C169.103 12.418 170.894 13.286 172.811 13.7032C174.729 14.1203 176.718 14.0746 178.614 13.5699C178.674 13.554 178.734 13.5381 178.793 13.52C178.941 13.4782 179.088 13.4347 179.233 13.3891C181.48 12.666 183.471 11.3112 184.968 9.48655C184.866 9.37887 184.764 9.27118 184.66 9.16406C183.209 10.9506 181.268 12.2748 179.075 12.9744Z" fill="white"/>
<path d="M181.009 18.8307C180.863 18.8832 180.716 18.9315 180.568 18.9777C180.41 19.0267 180.251 19.0735 180.091 19.1161C177.597 19.7771 174.955 19.6124 172.562 18.6466C170.17 17.6808 168.154 15.9659 166.817 13.7587C166.767 13.9571 166.717 14.1533 166.671 14.3505C168.095 16.5286 170.169 18.2025 172.598 19.1346C175.028 20.0667 177.689 20.2096 180.204 19.5428C180.364 19.5002 180.524 19.4555 180.679 19.4049C180.83 19.3603 180.977 19.312 181.123 19.2616C184.077 18.2226 186.525 16.1001 187.972 13.3239C187.885 13.1779 187.793 13.0358 187.7 12.8916C186.326 15.666 183.926 17.7964 181.009 18.8307Z" fill="white"/>
<path d="M73.0368 170.267L65.3512 170.302L73.7526 167.76C75.4641 160.631 74.926 152.63 74.926 152.63C74.926 152.63 58.2948 153.036 52.1976 159.72C46.1004 166.403 47.9447 172.362 52.8459 176.833C57.7472 181.304 63.8493 182.595 69.9466 175.912C71.3037 174.424 72.3026 172.445 73.0368 170.267Z" fill="#F0F3F5"/>
<path d="M64.087 169.53L63.7864 169.859C60.2734 173.671 56.9019 176.069 53.7154 177.017C53.6692 177.032 53.6228 177.043 53.5766 177.058L53.5136 176.842L53.4556 176.634C56.9339 175.644 60.3609 172.887 63.4259 169.563C63.5258 169.457 63.6271 169.349 63.7251 169.238C65.0102 167.82 66.2286 166.311 67.3576 164.795C67.446 164.678 67.5343 164.559 67.6225 164.439C69.1024 162.43 70.4231 160.426 71.5275 158.645C71.6061 158.52 71.6831 158.393 71.7586 158.267C73.6155 155.246 74.8154 152.925 75.0777 152.408C75.1108 152.346 75.1279 152.311 75.1322 152.303L75.3273 152.4L75.3304 152.4L75.5272 152.499C75.5229 152.507 75.4658 152.625 75.3537 152.839C74.9391 153.645 73.793 155.811 72.1285 158.53C72.0529 158.652 71.9759 158.779 71.8972 158.905C71.0025 160.351 69.9705 161.937 68.8287 163.549C68.5426 163.955 68.2561 164.351 67.9691 164.737C67.8824 164.858 67.7942 164.978 67.7058 165.095C66.4855 166.734 65.2792 168.212 64.087 169.53Z" fill="white"/>
<path d="M72.1288 158.531C72.0061 158.446 71.8818 158.359 71.7589 158.268C71.4246 158.021 71.1032 157.756 70.7959 157.476C69.4851 156.284 68.4585 154.812 67.7919 153.17C67.6445 153.194 67.4972 153.218 67.3467 153.242C68.0361 154.982 69.114 156.542 70.4983 157.802C70.8264 158.102 71.17 158.383 71.5278 158.646C71.6491 158.736 71.7734 158.822 71.8975 158.906C72.9175 159.599 74.0369 160.134 75.2174 160.491C75.2291 160.337 75.241 160.187 75.2529 160.039C74.143 159.693 73.0902 159.185 72.1288 158.531Z" fill="white"/>
<path d="M67.9691 164.738C67.8507 164.641 67.7352 164.542 67.6226 164.439C67.5869 164.41 67.551 164.377 67.5168 164.346C66.0981 163.052 65.0134 161.433 64.3551 159.629C63.6969 157.825 63.4847 155.889 63.7365 153.985C63.5835 154.022 63.4305 154.059 63.2776 154.099C63.0475 156.047 63.285 158.023 63.9704 159.862C64.6559 161.7 65.7695 163.349 67.2192 164.672C67.2649 164.714 67.3105 164.755 67.3577 164.795C67.4733 164.898 67.5888 164.997 67.7058 165.095C69.5285 166.594 71.7445 167.537 74.0888 167.81C74.1244 167.666 74.16 167.523 74.1939 167.377C71.9064 167.122 69.743 166.204 67.9691 164.738Z" fill="white"/>
<path d="M64.087 169.53C63.9639 169.435 63.8438 169.338 63.7251 169.239C63.5984 169.132 63.4731 169.024 63.3508 168.912C61.4465 167.171 60.1574 164.859 59.6766 162.324C59.1958 159.789 59.5491 157.166 60.6836 154.849C60.4897 154.914 60.2973 154.977 60.1066 155.045C59.0437 157.421 58.7564 160.07 59.2853 162.618C59.8143 165.166 61.1327 167.482 63.0532 169.238C63.1755 169.35 63.2993 169.46 63.426 169.563C63.5447 169.666 63.6648 169.763 63.7864 169.859C66.2569 171.783 69.366 172.695 72.484 172.412C72.5599 172.26 72.6294 172.105 72.7003 171.949C69.6239 172.293 66.5343 171.426 64.087 169.53Z" fill="white"/>
<path d="M47.5217 176.297L51.9378 176.297L54.0385 159.264L47.521 159.264L47.5217 176.297Z" fill="#EACC9E"/>
<path d="M46.395 174.856L55.0917 174.855H55.0921C56.5619 174.856 57.9716 175.439 59.0109 176.479C60.0503 177.518 60.6342 178.928 60.6343 180.398V180.578L46.3953 180.578L46.395 174.856Z" fill="#393C42"/>
<path d="M12.5823 176.297L16.9983 176.297L19.099 159.264L12.5815 159.264L12.5823 176.297Z" fill="#EACC9E"/>
<path d="M11.4556 174.856L20.1523 174.855H20.1526C21.6225 174.856 23.0321 175.439 24.0714 176.479C25.1108 177.518 25.6947 178.928 25.6948 180.398V180.578L11.4558 180.578L11.4556 174.856Z" fill="#393C42"/>
<path d="M20.0714 106.332L17.0951 109.071L13.7405 142.165L11.4824 168.516L18.3064 169.437L34.8584 124.412L46.9694 169.223L55.1345 169.437L49.7152 110.943L20.0714 106.332Z" fill="#393C42"/>
<path d="M34.4544 57.397C39.1365 57.397 42.9321 53.6013 42.9321 48.9192C42.9321 44.237 39.1365 40.4414 34.4544 40.4414C29.7722 40.4414 25.9766 44.237 25.9766 48.9192C25.9766 53.6013 29.7722 57.397 34.4544 57.397Z" fill="#EACC9E"/>
<path d="M30.1159 44.9828C30.1159 44.9828 29.1052 47.1702 33.1481 46.2953C33.1481 46.2953 34.6642 47.1702 34.6642 45.8578C34.6642 45.8578 36.6856 48.0451 37.191 46.7327C37.6964 45.4203 38.7071 47.1702 38.7071 47.1702L39.7178 44.9829L40.7285 46.2953H44.2661C44.2661 46.2953 45.2768 37.5459 33.1481 38.4209C21.0194 39.2958 26.9861 53.1582 26.9861 53.1582C26.9861 53.1582 27.0838 50.6699 28.0945 51.9823C29.1052 53.2947 30.1159 44.9828 30.1159 44.9828Z" fill="#393C42"/>
<path d="M40.9141 60.1634L28.9595 59.415L18.3063 62.241L19.9211 89.6929L17.0952 109.071C17.0952 109.071 32.5998 118.548 50.199 111.089L48.5274 106.692C48.5274 106.692 48.4698 99.9613 47.0578 98.6438C45.6457 97.3264 45.7582 86.4632 45.7582 86.4632L51.0064 66.278L40.9141 60.1634Z" fill="#393C42"/>
<path d="M21.1521 63.1066L18.3064 62.2402C18.3064 62.2402 13.8744 62.3882 11.5699 67.43C9.26551 72.4718 7.82471 79.6758 7.82471 79.6758L22.4611 80.2051L21.1521 63.1066Z" fill="#393C42"/>
<path d="M55.1244 111.232L54.6505 81.4775L48.3271 82.4261L49.7238 110.617C49.1489 111.089 48.7258 111.719 48.5072 112.43C48.2887 113.141 48.2844 113.901 48.4949 114.614C48.7053 115.327 49.1213 115.963 49.6908 116.441C50.2603 116.92 50.958 117.22 51.697 117.304C52.436 117.388 53.1834 117.253 53.8459 116.915C54.5084 116.577 55.0567 116.051 55.4223 115.404C55.7879 114.756 55.9546 114.015 55.9016 113.273C55.8486 112.531 55.5783 111.821 55.1244 111.232Z" fill="#EACC9E"/>
<path d="M47.4466 68.8699L51.0062 66.2773C51.0062 66.2773 57.846 71.6267 57.8692 83.3956L48.3272 85.71L42.9321 77.95L47.4466 68.8699Z" fill="#393C42"/>
<path d="M239.418 176.281L243.834 176.28L245.934 159.247L239.417 159.247L239.418 176.281Z" fill="#DFAF67"/>
<path d="M238.292 174.838L246.988 174.838H246.989C248.458 174.838 249.868 175.422 250.907 176.461C251.947 177.501 252.531 178.91 252.531 180.38V180.56L238.292 180.561L238.292 174.838Z" fill="#393C42"/>
<path d="M213.28 172.525L217.491 173.857L224.631 158.251L218.417 156.285L213.28 172.525Z" fill="#DFAF67"/>
<path d="M212.641 170.811L220.933 173.433L220.933 173.433C222.335 173.877 223.503 174.859 224.18 176.163C224.858 177.468 224.989 178.988 224.546 180.389L224.492 180.561L210.916 176.267L212.641 170.811Z" fill="#393C42"/>
<path d="M223.223 98.4883L220.773 105.4L220.703 142.712L213.754 168.258L222.285 170.639L231.708 146.551L234.73 125.394L238.713 146.674L238.165 171.968H247.116L247.791 132.99C247.981 122.044 246.066 111.163 242.149 100.939L223.223 98.4883Z" fill="#393C42"/>
<path d="M220.305 70.4912H234.772L240.817 76.5365L242.623 101.524L220.773 105.04L213.754 81.1985L217.576 71.0657L220.305 70.4912Z" fill="#5D74A2"/>
<path d="M215.102 81.4369L192.827 73.0561L192.248 69.5917L206.295 57.7051L210.971 61.212L202.496 70.4911L217.577 71.0657L215.102 81.4369Z" fill="#5D74A2"/>
<path d="M208.997 62.5673C210.986 62.5673 212.599 60.9546 212.599 58.9653C212.599 56.976 210.986 55.3633 208.997 55.3633C207.008 55.3633 205.395 56.976 205.395 58.9653C205.395 60.9546 207.008 62.5673 208.997 62.5673Z" fill="#DFAF67"/>
<path d="M217.351 63.5027L218.978 56.1632C219.559 53.5569 221.15 51.2876 223.403 49.8542C225.656 48.4207 228.385 47.9402 230.992 48.5183C233.599 49.0964 235.87 50.6858 237.305 52.9372C238.741 55.1887 239.224 57.9179 238.648 60.5253L237.02 67.8647C236.942 68.2149 236.729 68.5198 236.426 68.7126C236.123 68.9053 235.757 68.9702 235.406 68.8929L218.379 65.1167C218.029 65.0387 217.724 64.8249 217.531 64.5223C217.338 64.2197 217.273 63.853 217.351 63.5027Z" fill="#393C42"/>
<path d="M226.508 66.5606C230.587 66.5606 233.894 63.2539 233.894 59.1748C233.894 55.0958 230.587 51.7891 226.508 51.7891C222.429 51.7891 219.123 55.0958 219.123 59.1748C219.123 63.2539 222.429 66.5606 226.508 66.5606Z" fill="#DFAF67"/>
<path d="M216.521 56.234C216.981 54.1719 218.24 52.3764 220.022 51.2413C221.804 50.1063 223.963 49.7244 226.026 50.1795L227.494 50.505C229.557 50.9648 231.352 52.2237 232.487 54.0057C233.622 55.7876 234.004 57.9471 233.549 60.0102L233.516 60.157L230.414 59.469L230.013 56.2716L229.145 59.1875L227.541 58.8319L227.339 57.2187L226.901 58.6899L216.489 56.3808L216.521 56.234Z" fill="#393C42"/>
<path d="M223.979 67.2245C223.877 66.995 223.842 66.7414 223.878 66.4929C223.914 66.2443 224.019 66.011 224.182 65.8197C226.394 63.206 229.784 58.2219 227.641 54.2092L227.487 53.9209L235.879 55.7821L233.085 68.3825L225.163 68.0369C225.082 68.0335 225.003 68.023 224.924 68.0057C224.716 67.9596 224.522 67.8647 224.358 67.7289C224.193 67.5931 224.064 67.4202 223.979 67.2245Z" fill="#393C42"/>
<path d="M316.471 181H-36.9923C-37.1058 181 -37.2146 180.955 -37.2947 180.874C-37.3749 180.794 -37.4199 180.685 -37.4199 180.571C-37.4199 180.458 -37.3749 180.349 -37.2947 180.269C-37.2146 180.188 -37.1058 180.143 -36.9923 180.143H316.471C316.585 180.143 316.694 180.188 316.774 180.268C316.854 180.349 316.9 180.458 316.9 180.571C316.9 180.685 316.854 180.794 316.774 180.875C316.694 180.955 316.585 181 316.471 181Z" fill="#B4B9C4"/>
<path d="M141.223 74.8213H26.9263C26.0587 74.8213 25.1995 74.9922 24.3979 75.3242C23.5963 75.6562 22.868 76.1429 22.2545 76.7564C21.641 77.37 21.1543 78.0983 20.8223 78.8999C20.4902 79.7015 20.3193 80.5606 20.3193 81.4283V108.917C20.3193 109.785 20.4902 110.644 20.8223 111.445C21.1543 112.247 21.641 112.975 22.2545 113.589C22.868 114.202 23.5963 114.689 24.3979 115.021C25.1995 115.353 26.0587 115.524 26.9263 115.524H28.604V120.49C28.604 120.792 28.6933 121.086 28.8608 121.337C29.0282 121.587 29.2662 121.783 29.5446 121.898C29.823 122.013 30.1294 122.044 30.4249 121.985C30.7205 121.926 30.992 121.781 31.2051 121.568L37.2488 115.524H141.223C142.091 115.524 142.95 115.353 143.752 115.021C144.553 114.689 145.282 114.202 145.895 113.589C146.509 112.975 146.996 112.247 147.328 111.445C147.66 110.644 147.83 109.785 147.83 108.917V81.4283C147.83 80.5606 147.66 79.7015 147.328 78.8999C146.996 78.0983 146.509 77.37 145.895 76.7564C145.282 76.1429 144.553 75.6562 143.752 75.3242C142.95 74.9922 142.091 74.8213 141.223 74.8213Z" fill="#B4B9C4"/>
<path d="M113.735 112.102H26.9264C26.0819 112.101 25.2723 111.765 24.6752 111.168C24.078 110.571 23.7422 109.761 23.7412 108.917V81.4282C23.7422 80.5837 24.0781 79.7742 24.6752 79.1771C25.2722 78.58 26.0818 78.2441 26.9262 78.2432H141.223C142.068 78.2441 142.877 78.58 143.475 79.1771C144.072 79.7743 144.408 80.5839 144.409 81.4283C144.399 89.5607 141.165 97.3573 135.414 103.108C129.664 108.858 121.867 112.093 113.735 112.102Z" fill="white"/>
<path d="M108.329 84.1865H60.0616C58.868 84.1865 57.9004 85.1541 57.9004 86.3477V86.3477C57.9004 87.5413 58.868 88.5089 60.0616 88.5089H108.329C109.522 88.5089 110.49 87.5413 110.49 86.3477C110.49 85.1541 109.522 84.1865 108.329 84.1865Z" fill="#5D74A2"/>
<path d="M118.594 92.8311H49.796C48.6024 92.8311 47.6348 93.7987 47.6348 94.9922V94.9923C47.6348 96.1859 48.6024 97.1535 49.796 97.1535H118.594C119.788 97.1535 120.756 96.1859 120.756 94.9922C120.756 93.7987 119.788 92.8311 118.594 92.8311Z" fill="#B4B9C4"/>
<path d="M118.594 101.477H49.796C48.6024 101.477 47.6348 102.444 47.6348 103.638V103.638C47.6348 104.831 48.6024 105.799 49.796 105.799H118.594C119.788 105.799 120.756 104.831 120.756 103.638C120.756 102.444 119.788 101.477 118.594 101.477Z" fill="#B4B9C4"/>
<path d="M304.062 93.9609H221.407C220.779 93.9609 220.158 94.0845 219.578 94.3246C218.999 94.5647 218.472 94.9167 218.028 95.3604C217.585 95.804 217.233 96.3308 216.993 96.9104C216.752 97.4901 216.629 98.1114 216.629 98.7389V118.618C216.629 119.245 216.752 119.866 216.993 120.446C217.233 121.026 217.585 121.553 218.028 121.996C218.472 122.44 218.999 122.792 219.578 123.032C220.158 123.272 220.779 123.396 221.407 123.396H222.62V126.987C222.62 127.205 222.685 127.418 222.806 127.599C222.927 127.781 223.099 127.922 223.3 128.005C223.502 128.089 223.723 128.11 223.937 128.068C224.151 128.025 224.347 127.92 224.501 127.766L228.872 123.396H304.062C304.69 123.396 305.311 123.272 305.891 123.032C306.471 122.792 306.997 122.44 307.441 121.996C307.885 121.553 308.237 121.026 308.477 120.446C308.717 119.866 308.84 119.245 308.84 118.618V98.7389C308.84 98.1114 308.717 97.4901 308.477 96.9104C308.237 96.3308 307.885 95.804 307.441 95.3604C306.997 94.9167 306.471 94.5647 305.891 94.3246C305.311 94.0845 304.69 93.9609 304.062 93.9609Z" fill="#B4B9C4"/>
<path d="M304.063 120.971H221.407C220.783 120.971 220.185 120.722 219.744 120.281C219.303 119.84 219.054 119.242 219.054 118.618V98.739C219.054 98.1151 219.303 97.5169 219.744 97.0758C220.185 96.6346 220.783 96.3864 221.407 96.3857H284.184C290.078 96.3925 295.729 98.7369 299.897 102.905C304.065 107.073 306.409 112.724 306.416 118.618C306.415 119.242 306.167 119.84 305.726 120.281C305.285 120.722 304.686 120.971 304.063 120.971Z" fill="white"/>
<path d="M280.274 100.733H245.369C244.506 100.733 243.806 101.433 243.806 102.296C243.806 103.159 244.506 103.859 245.369 103.859H280.274C281.137 103.859 281.837 103.159 281.837 102.296C281.837 101.433 281.137 100.733 280.274 100.733Z" fill="#5D74A2"/>
<path d="M287.698 106.985H237.945C237.082 106.985 236.382 107.685 236.382 108.548C236.382 109.411 237.082 110.111 237.945 110.111H287.698C288.561 110.111 289.261 109.411 289.261 108.548C289.261 107.685 288.561 106.985 287.698 106.985Z" fill="#B4B9C4"/>
<path d="M287.698 113.236H237.945C237.082 113.236 236.382 113.936 236.382 114.799C236.382 115.662 237.082 116.362 237.945 116.362H287.698C288.561 116.362 289.261 115.662 289.261 114.799C289.261 113.936 288.561 113.236 287.698 113.236Z" fill="#B4B9C4"/>
<path d="M127.755 24.082H210.41C211.038 24.082 211.659 24.2056 212.239 24.4457C212.818 24.6858 213.345 25.0378 213.789 25.4815C214.232 25.9251 214.584 26.4519 214.824 27.0315C215.064 27.6112 215.188 28.2325 215.188 28.86V48.7388C215.188 49.3663 215.064 49.9876 214.824 50.5673C214.584 51.147 214.232 51.6737 213.789 52.1173C213.345 52.561 212.818 52.913 212.239 53.1531C211.659 53.3932 211.038 53.5168 210.41 53.5168H209.197V57.1082C209.197 57.3262 209.132 57.5392 209.011 57.7204C208.89 57.9016 208.718 58.0428 208.517 58.1262C208.315 58.2096 208.094 58.2314 207.88 58.1889C207.666 58.1464 207.47 58.0414 207.316 57.8873L202.945 53.5168H127.755C127.127 53.5168 126.506 53.3932 125.926 53.1531C125.346 52.913 124.82 52.561 124.376 52.1174C123.932 51.6737 123.58 51.147 123.34 50.5673C123.1 49.9876 122.977 49.3663 122.977 48.7388V28.86C122.977 28.2325 123.1 27.6112 123.34 27.0315C123.58 26.4519 123.932 25.9251 124.376 25.4815C124.82 25.0378 125.346 24.6858 125.926 24.4457C126.506 24.2056 127.127 24.082 127.755 24.082Z" fill="#B4B9C4"/>
<path d="M210.41 51.0921H147.634C141.739 51.0855 136.088 48.7411 131.92 44.5733C127.753 40.4054 125.408 34.7545 125.401 28.8603C125.402 28.2363 125.65 27.6382 126.091 27.197C126.533 26.7558 127.131 26.5076 127.755 26.5068H210.41C211.034 26.5075 211.632 26.7557 212.073 27.1969C212.515 27.638 212.763 28.2362 212.763 28.8601V48.7389C212.763 49.3628 212.515 49.9609 212.073 50.4021C211.632 50.8433 211.034 51.0914 210.41 51.0921Z" fill="white"/>
<path d="M151.543 33.9805L186.448 33.9805C187.311 33.9805 188.011 33.2807 188.011 32.4176C188.011 31.5544 187.311 30.8547 186.448 30.8547L151.543 30.8547C150.68 30.8547 149.98 31.5544 149.98 32.4176C149.98 33.2807 150.68 33.9805 151.543 33.9805Z" fill="#5D74A2"/>
<path d="M144.119 40.2324L193.872 40.2324C194.735 40.2324 195.435 39.5327 195.435 38.6695C195.435 37.8063 194.735 37.1066 193.872 37.1066L144.119 37.1066C143.256 37.1066 142.556 37.8063 142.556 38.6695C142.556 39.5327 143.256 40.2324 144.119 40.2324Z" fill="#B4B9C4"/>
<path d="M144.119 46.4834L193.872 46.4834C194.735 46.4834 195.435 45.7837 195.435 44.9205C195.435 44.0573 194.735 43.3576 193.872 43.3576L144.119 43.3576C143.256 43.3576 142.556 44.0573 142.556 44.9205C142.556 45.7837 143.256 46.4834 144.119 46.4834Z" fill="#B4B9C4"/>
<path d="M32.4986 74.2733C32.4986 73.2702 32.1001 72.3082 31.3908 71.599C30.6816 70.8897 29.7196 70.4912 28.7165 70.4912C27.7134 70.4912 26.7514 70.8897 26.0421 71.599C25.3329 72.3082 24.9344 73.2702 24.9344 74.2733C24.9344 74.3102 24.9388 74.346 24.9398 74.3827L18.3065 81.016L18.811 79.8564L11.2467 79.4962L10.1433 87.4826C10.0466 88.2199 10.1812 88.969 10.5285 89.6265C10.8758 90.284 11.4186 90.8175 12.0821 91.1533C12.7455 91.4891 13.4969 91.6106 14.2323 91.5011C14.9678 91.3917 15.6512 91.0566 16.1881 90.5421L29.2635 78.0114C30.1617 77.8807 30.9829 77.431 31.5769 76.7446C32.1709 76.0583 32.4981 75.181 32.4986 74.2733Z" fill="#EACC9E"/>
<path d="M234.197 70.6426L257.759 73.9928L259.076 77.249L247.941 91.8995L242.616 89.4901L248.876 78.5937L234.031 81.3038L234.197 70.6426Z" fill="#5D74A2"/>
<path d="M244.657 96.0653C246.646 96.0653 248.259 94.4527 248.259 92.4633C248.259 90.474 246.646 88.8613 244.657 88.8613C242.667 88.8613 241.055 90.474 241.055 92.4633C241.055 94.4527 242.667 96.0653 244.657 96.0653Z" fill="#DFAF67"/>
</g>
<defs>
<clipPath id="clip0_1217_5455">
<rect width="316" height="181" fill="white" transform="translate(0.5)"/>
</clipPath>
</defs>
</svg>
