<svg width="336" height="286" viewBox="0 0 336 286" fill="none" xmlns="http://www.w3.org/2000/svg">
<g clip-path="url(#clip0_543_20643)">
<path d="M249.393 260.1C260.25 260.1 269.051 242.141 269.051 219.988C269.051 197.835 260.25 179.877 249.393 179.877C238.536 179.877 229.734 197.835 229.734 219.988C229.734 242.141 238.536 260.1 249.393 260.1Z" fill="#393C42"/>
<path d="M247.577 285.644C255.451 238.405 247.656 191.337 247.577 190.867L246.045 191.127C246.125 191.594 253.874 238.415 246.045 285.39L247.577 285.644Z" fill="#B4B9C4"/>
<path d="M232.085 211.364L231.352 212.734L249.129 222.243L249.862 220.873L232.085 211.364Z" fill="#B4B9C4"/>
<path d="M267.89 216.127L250.116 225.641L250.849 227.01L268.624 217.497L267.89 216.127Z" fill="#B4B9C4"/>
<path d="M296.626 234.961C317.862 234.961 335.076 199.836 335.076 156.508C335.076 113.179 317.862 78.0547 296.626 78.0547C275.391 78.0547 258.177 113.179 258.177 156.508C258.177 199.836 275.391 234.961 296.626 234.961Z" fill="#F0F3F5"/>
<path d="M292.344 284.801C307.723 192.528 292.499 100.592 292.343 99.6738L290.812 99.9333C290.967 100.849 306.146 192.538 290.811 284.546L292.344 284.801Z" fill="#B4B9C4"/>
<path d="M262.424 140.292L261.691 141.662L296.461 160.26L297.194 158.89L262.424 140.292Z" fill="#B4B9C4"/>
<path d="M333.156 149.607L298.391 168.215L299.125 169.585L333.889 150.977L333.156 149.607Z" fill="#B4B9C4"/>
<path d="M207.327 285.047H2.81018C2.05799 285.047 1.33685 284.747 0.804974 284.216C0.273095 283.684 -0.0261001 282.963 -0.0269775 282.21V152.98C-0.0261354 152.228 0.27305 151.506 0.804937 150.974C1.33682 150.443 2.05797 150.143 2.81018 150.143H207.327C208.079 150.143 208.8 150.443 209.332 150.975C209.864 151.506 210.163 152.228 210.164 152.98V282.21C210.163 282.962 209.864 283.684 209.332 284.215C208.8 284.747 208.079 285.047 207.327 285.047Z" fill="#F0F3F5"/>
<path d="M21.6181 165.803C21.2958 165.803 20.9867 165.931 20.7587 166.159C20.5308 166.387 20.4026 166.696 20.4022 167.019V268.172C20.4026 268.494 20.5308 268.803 20.7587 269.031C20.9867 269.259 21.2958 269.387 21.6181 269.388H188.519C188.841 269.387 189.15 269.259 189.378 269.031C189.606 268.803 189.734 268.494 189.735 268.172V167.019C189.734 166.696 189.606 166.387 189.378 166.159C189.15 165.931 188.841 165.803 188.519 165.803H21.6181Z" fill="white"/>
<path d="M190.14 191.855V185.445H166.537V165.396H160.127V185.445H118.107V165.396H111.697V185.445H46.8863V165.396H40.4764V185.445H18.0652V191.855H40.4764V216.782H18.0652V223.192H40.4764V249.9H18.0652V256.31H75.0186V269.792H81.4285V256.31H111.697V269.792H118.107V256.31H190.14V249.9H118.107V223.192H190.14V216.782H166.537V191.855H190.14ZM111.697 191.855V199.689H46.8863V191.855H111.697ZM46.8863 206.099H111.697V216.782H46.8863V206.099ZM46.8863 249.9V223.192H75.0186V249.9H46.8863ZM111.697 249.9H81.4285V223.192H111.697V249.9ZM160.127 216.782H118.107V191.855H160.127V216.782Z" fill="#F0F3F5"/>
<path d="M114.902 228.988C119.426 228.988 123.093 225.321 123.093 220.798C123.093 216.274 119.426 212.607 114.902 212.607C110.379 212.607 106.712 216.274 106.712 220.798C106.712 225.321 110.379 228.988 114.902 228.988Z" fill="#264175"/>
<path d="M335.803 285.74H-33.2352V284.855H335.963L335.803 285.74Z" fill="#B4B9C4"/>
<path d="M115.884 172.143C143.787 172.143 166.408 149.523 166.408 121.619C166.408 93.716 143.787 71.0957 115.884 71.0957C87.9804 71.0957 65.3601 93.716 65.3601 121.619C65.3601 149.523 87.9804 172.143 115.884 172.143Z" fill="#264175"/>
<path d="M116.378 203.751L100.416 176.485L84.4543 149.218L116.049 149.028L147.643 148.838L132.011 176.295L116.378 203.751Z" fill="#264175"/>
<path d="M116.29 139.428C126.301 139.428 134.417 131.312 134.417 121.301C134.417 111.29 126.301 103.174 116.29 103.174C106.278 103.174 98.1624 111.29 98.1624 121.301C98.1624 131.312 106.278 139.428 116.29 139.428Z" fill="white"/>
<path d="M114.715 0.259609C114.715 0.259609 103.904 -2.78576 100.707 11.9842C97.509 26.7542 99.54 24.8933 99.54 24.8933L123.674 22.0763C123.674 22.0763 130.932 4.7515 114.715 0.259609Z" fill="#393C42"/>
<path d="M98.9929 65.0566C98.9929 65.0566 82.6827 65.8116 85.5072 72.2138C85.7069 72.6664 85.8928 73.0904 86.0649 73.4859C88.0838 78.1231 90.4078 82.6215 93.0215 86.9515L103.046 103.561L106.694 101.534L96.4287 74.8501L105.655 74.0969L98.9929 65.0566Z" fill="#EACC9E"/>
<path d="M141.997 71.8372L147.27 83.3235C147.27 83.3235 151.224 87.2778 155.555 103.095C159.886 118.912 160.827 118.347 160.827 118.347L156.547 119.773L138.984 87.8427L130.323 76.9213L132.959 71.084L141.997 71.8372Z" fill="#EACC9E"/>
<path d="M135.595 58.6563L143.171 72.7575C143.171 72.7575 160.348 106.51 158.573 106.398C156.578 106.272 150.972 108.598 149.251 110.856C148.42 111.946 136.281 85.3221 132.017 79.3693L122.791 72.2139C122.791 72.2139 96.5932 76.6232 96.5611 75.1894C96.5453 74.4871 105.235 91.3378 103.451 90.5911C101.42 89.7405 96.6411 93.8796 94.5345 93.0229C93.6653 92.6694 87.5237 77.7787 85.0375 71.6769C84.7257 70.9152 84.7094 70.0645 84.9921 69.2915C85.2747 68.5185 85.8358 67.8789 86.5654 67.498C88.4339 66.5262 114.395 60.5983 114.395 60.5983L113.941 58.2797L115.824 54.5137L135.595 58.6563Z" fill="#393C42"/>
<path d="M120.059 17.0861C120.709 13.0827 117.99 9.31059 113.987 8.66093C109.983 8.01127 106.211 10.7301 105.562 14.7335C104.912 18.737 107.631 22.5091 111.634 23.1587C115.638 23.8084 119.41 21.0896 120.059 17.0861Z" fill="#EACC9E"/>
<path d="M136.281 59.7878C136.687 61.0043 134.06 61.7031 130.4 61.0195C127.233 60.4283 123.766 59.7259 121.032 59.1572C118.104 58.5471 116.012 58.0915 116.012 58.0915C116.012 58.0915 115.259 62.799 112.811 62.2341C110.702 61.7483 104.399 39.7341 102.695 33.6501C102.571 33.2058 102.595 32.7331 102.764 32.3037C102.933 31.8744 103.237 31.5121 103.631 31.2718L112.287 25.9862C112.287 25.9862 118.253 23.9375 120.428 23.8791C122.602 23.8208 126.368 23.2559 126.368 23.2559C126.368 23.2559 130.699 23.6325 131.453 26.8336C132.206 30.0347 135.349 49.0143 135.407 53.5722C135.471 58.5718 135.065 56.14 136.281 59.7878Z" fill="#B4B9C4"/>
<path d="M115.556 6.47852C115.556 6.47852 112.511 14.5487 105.05 17.8986L103.832 10.742L115.556 6.47852Z" fill="#393C42"/>
<path d="M119.966 15.0637C120.538 15.0637 121.002 14.1785 121.002 13.0865C121.002 11.9946 120.538 11.1094 119.966 11.1094C119.394 11.1094 118.931 11.9946 118.931 13.0865C118.931 14.1785 119.394 15.0637 119.966 15.0637Z" fill="#EACC9E"/>
<path d="M109.729 105.444L95.1717 112.137L95.087 111.953C94.3962 110.45 94.3306 108.734 94.9046 107.183C95.4787 105.632 96.6453 104.372 98.148 103.681L98.1483 103.681L107.039 99.5938L109.729 105.444Z" fill="#393C42"/>
<path d="M154.376 118.814L163.306 114.811L163.306 114.811C164.816 114.135 166.532 114.085 168.077 114.674C169.623 115.263 170.871 116.442 171.548 117.951L171.631 118.136L157.01 124.69L154.376 118.814Z" fill="#393C42"/>
<path opacity="0.2" d="M130.201 42.3594L128.497 61.1093L131.527 61.2524L130.201 42.3594Z" fill="#222429"/>
<path d="M118.318 77.387C118.679 76.9837 118.948 76.5062 119.105 75.9881C119.261 75.4699 119.302 74.9237 119.225 74.3879C119.148 73.8521 118.954 73.3398 118.657 72.887C118.361 72.4342 117.968 72.052 117.508 71.7672L110.959 38.6836L103.438 41.561L112.24 73.1763C111.813 73.9814 111.696 74.9152 111.912 75.8008C112.127 76.6864 112.66 77.4622 113.409 77.9813C114.158 78.5003 115.072 78.7265 115.977 78.6169C116.881 78.5074 117.715 78.0698 118.318 77.387Z" fill="#EACC9E"/>
<path d="M112.616 44.2586L104.357 45.7131C104.122 45.7545 103.881 45.7447 103.65 45.6845C103.419 45.6243 103.204 45.5151 103.019 45.3642C102.835 45.2133 102.685 45.0244 102.579 44.8103C102.474 44.5961 102.416 44.3618 102.41 44.1233L102.182 35.7664C101.977 34.563 102.257 33.3273 102.962 32.3304C103.667 31.3335 104.738 30.6567 105.941 30.4485C107.144 30.2402 108.38 30.5175 109.379 31.2195C110.378 31.9216 111.057 32.991 111.269 34.1934L113.903 42.099C113.978 42.3254 114.004 42.5654 113.978 42.8025C113.952 43.0397 113.876 43.2686 113.754 43.4735C113.632 43.6785 113.467 43.8547 113.27 43.9902C113.074 44.1256 112.851 44.2172 112.616 44.2586H112.616Z" fill="#B4B9C4"/>
<path d="M124.65 76.8047C125.122 76.5386 125.529 76.1723 125.843 75.7318C126.158 75.2912 126.372 74.7871 126.471 74.2548C126.569 73.7225 126.55 73.1751 126.414 72.6511C126.278 72.1271 126.029 71.6392 125.685 71.2219L130.09 37.7852L122.043 38.0989L120.243 70.8674C119.581 71.4931 119.17 72.3401 119.091 73.248C119.011 74.1559 119.266 75.0616 119.81 75.7934C120.353 76.5252 121.146 77.0324 122.038 77.2188C122.93 77.4052 123.859 77.2578 124.65 76.8047Z" fill="#EACC9E"/>
<path d="M129.871 43.5968L121.583 42.3264C121.347 42.2902 121.122 42.2037 120.922 42.0726C120.723 41.9416 120.554 41.7691 120.427 41.5669C120.301 41.3647 120.219 41.1376 120.188 40.9011C120.157 40.6645 120.177 40.424 120.248 40.196L122.711 32.2073C122.903 31.0017 123.565 29.9213 124.552 29.203C125.539 28.4847 126.771 28.1871 127.977 28.3756C129.183 28.5641 130.266 29.2232 130.986 30.2084C131.707 31.1936 132.008 32.4245 131.823 33.6311L131.783 41.964C131.782 42.2026 131.729 42.4382 131.629 42.6546C131.528 42.871 131.383 43.0632 131.201 43.2182C131.02 43.3731 130.807 43.4871 130.577 43.5525C130.348 43.6178 130.107 43.6329 129.871 43.5968Z" fill="#B4B9C4"/>
</g>
<defs>
<clipPath id="clip0_543_20643">
<rect width="336" height="285.742" fill="white"/>
</clipPath>
</defs>
</svg>
