<svg width="229" height="181" viewBox="0 0 229 181" fill="none" xmlns="http://www.w3.org/2000/svg">
<g clip-path="url(#clip0_1217_4576)">
<path d="M143.994 164.965L140.532 164.965L138.885 151.613L143.994 151.614L143.994 164.965Z" fill="#DFAF67"/>
<path d="M144.876 168.321L133.715 168.32V168.179C133.715 167.027 134.173 165.922 134.987 165.107C135.802 164.293 136.907 163.835 138.059 163.835H138.06L144.877 163.835L144.876 168.321Z" fill="#393C42"/>
<path d="M131.57 164.965L128.109 164.965L126.462 151.613L131.571 151.614L131.57 164.965Z" fill="#DFAF67"/>
<path d="M132.453 168.321L121.292 168.32V168.179C121.292 167.027 121.749 165.922 122.564 165.107C123.379 164.293 124.484 163.835 125.636 163.835H125.636L132.453 163.835L132.453 168.321Z" fill="#393C42"/>
<path d="M91.2545 71.4067C91.5312 71.7872 91.8879 72.1023 92.2995 72.33C92.7112 72.5577 93.1677 72.6924 93.637 72.7246C94.1064 72.7567 94.577 72.6856 95.0159 72.5162C95.4547 72.3468 95.8511 72.0832 96.177 71.744L103.026 74.4187L105.667 70.6528L95.9413 67.0114C95.3353 66.5016 94.5632 66.2318 93.7715 66.2531C92.9798 66.2745 92.2234 66.5855 91.6457 67.1273C91.068 67.6691 90.7091 68.404 90.637 69.1927C90.5649 69.9814 90.7846 70.7692 91.2545 71.4067V71.4067Z" fill="#DFAF67"/>
<path d="M131.527 94.2236L122.509 97.1653L125.521 161.032L132.481 161.204L136.043 116.164L136.852 161.026L145.458 161.501L148.63 94.2236H131.527Z" fill="#393C42"/>
<path d="M125.442 56.5749L148.587 51.5459L151.161 71.4757L149.018 80.9983L149.876 95.4699C149.876 95.4699 131.575 104.579 122.508 97.165C122.508 97.165 129.796 78.0245 125.572 69.0644L125.442 56.5749Z" fill="#B4B9C4"/>
<path d="M129.45 59.3941L125.442 56.5751C125.442 56.5751 125.205 56.2472 121.864 60.1523C118.524 64.0574 111.748 70.2692 111.748 70.2692L100.454 66.0339L98.396 73.6362L111.522 79.7531L130.105 67.3423L129.45 59.3941Z" fill="#B4B9C4"/>
<path d="M149.881 102.941C150.306 102.74 150.682 102.449 150.982 102.087C151.283 101.725 151.5 101.301 151.619 100.846C151.738 100.391 151.756 99.9153 151.671 99.4525C151.587 98.9898 151.402 98.5513 151.129 98.1678L155.033 91.9366L151.825 88.6406L146.435 97.5177C145.822 98.0182 145.413 98.7265 145.286 99.5083C145.16 100.29 145.324 101.091 145.749 101.76C146.174 102.428 146.829 102.918 147.59 103.136C148.352 103.353 149.167 103.284 149.881 102.941Z" fill="#DFAF67"/>
<path d="M144.977 55.4727L148.587 51.5466C148.587 51.5466 152.61 50.1458 155.896 57.3842C159.183 64.6226 162.853 79.3048 162.853 79.3048L154.271 95.8357L147.606 92.8577L154.271 79.1881L147.218 69.0651L144.977 55.4727Z" fill="#B4B9C4"/>
<path d="M138.856 49.9122C142.497 47.9219 143.835 43.3569 141.845 39.716C139.854 36.0751 135.289 34.737 131.648 36.7273C128.007 38.7176 126.669 43.2826 128.66 46.9235C130.65 50.5644 135.215 51.9025 138.856 49.9122Z" fill="#DFAF67"/>
<path d="M141.588 36.6005C141.232 35.1086 139.988 33.9311 138.558 33.3789C137.127 32.8267 135.533 32.832 134.021 33.0889C131.512 33.5154 129.168 34.5977 126.859 35.6691L128.639 36.5206L126.183 36.6615L128.081 37.6431C127.574 38.0288 127.188 38.5518 126.97 39.15C126.751 39.7482 126.709 40.3966 126.848 41.0182C126.945 41.4249 127.206 41.8732 127.624 41.8873C128.13 41.9042 128.394 41.3152 128.748 40.9539C129.218 40.4732 129.962 40.3666 130.628 40.4571C131.295 40.5477 131.927 40.8042 132.585 40.946C133.416 41.1193 134.276 41.1097 135.103 40.918C135.931 40.7263 136.707 40.357 137.377 39.8356L139.744 45.5346C139.722 45.3197 139.749 45.1025 139.825 44.9C139.9 44.6976 140.021 44.5153 140.179 44.3674C140.337 44.2196 140.526 44.1101 140.733 44.0477C140.94 43.9852 141.158 43.9714 141.371 44.0073C141.585 44.0432 141.786 44.1279 141.961 44.2548C142.136 44.3816 142.28 44.5472 142.38 44.7385C142.48 44.9299 142.535 45.1419 142.54 45.3579C142.545 45.5739 142.5 45.7881 142.408 45.9839C143.433 44.4385 144.257 42.6828 144.285 40.8289C144.314 38.9751 143.394 37.022 141.711 36.2441" fill="#393C42"/>
<path d="M54.5168 151.723L51.3164 156.755L53.1806 150.205C49.2447 146.098 43.796 143.094 43.796 143.094C43.796 143.094 37.0868 154.12 38.8926 160.903C40.6984 167.686 45.3612 168.981 50.3353 167.657C55.3094 166.333 58.7112 162.891 56.9054 156.108C56.5035 154.598 55.6304 153.116 54.5168 151.723Z" fill="#F0F3F5"/>
<path d="M50.2823 157.256L50.3713 157.591C51.3861 161.482 51.5379 164.689 50.8203 167.167C50.8105 167.203 50.7985 167.238 50.7887 167.274L50.6214 167.225L50.4611 167.175C51.274 164.49 50.9112 161.097 50.0269 157.702C49.9995 157.592 49.9717 157.481 49.9405 157.371C49.5535 155.937 49.0793 154.509 48.5632 153.136C48.5242 153.029 48.4831 152.921 48.442 152.814C47.7514 151.005 46.9968 149.303 46.2976 147.835C46.2487 147.731 46.1981 147.628 46.1479 147.526C44.9544 145.046 43.9426 143.29 43.7153 142.902C43.6884 142.854 43.6726 142.828 43.6692 142.822L43.8145 142.736L43.8157 142.733L43.9627 142.646C43.9662 142.653 44.0194 142.74 44.1125 142.903C44.4641 143.511 45.3979 145.168 46.4746 147.394C46.5226 147.495 46.5732 147.599 46.6222 147.702C47.1908 148.893 47.7936 150.232 48.367 151.653C48.5116 152.01 48.6499 152.363 48.7819 152.713C48.8247 152.82 48.8658 152.928 48.9048 153.034C49.4629 154.518 49.9221 155.926 50.2823 157.256Z" fill="white"/>
<path d="M46.4747 147.394C46.3678 147.438 46.2592 147.483 46.1481 147.525C45.8465 147.64 45.5391 147.739 45.2274 147.822C43.8991 148.177 42.508 148.23 41.1565 147.977C41.1104 148.083 41.0642 148.189 41.0168 148.298C42.442 148.578 43.9124 148.528 45.3155 148.153C45.6483 148.064 45.9762 147.958 46.2978 147.835C46.4073 147.793 46.5158 147.748 46.6223 147.702C47.5028 147.327 48.3211 146.821 49.0495 146.2C48.954 146.128 48.8607 146.057 48.7695 145.987C48.078 146.567 47.3048 147.041 46.4747 147.394Z" fill="white"/>
<path d="M48.782 152.712C48.6696 152.749 48.5563 152.783 48.4421 152.813C48.4077 152.824 48.3713 152.834 48.3366 152.843C46.8968 153.226 45.3857 153.256 43.9321 152.929C42.4785 152.602 41.1255 151.929 39.9884 150.966C39.9482 151.081 39.908 151.197 39.8699 151.313C41.0455 152.28 42.4346 152.954 43.9223 153.278C45.41 153.601 46.9534 153.566 48.4247 153.174C48.4711 153.162 48.5174 153.15 48.5633 153.136C48.6787 153.103 48.792 153.069 48.9049 153.034C50.648 152.473 52.1927 151.422 53.3542 150.006C53.2752 149.923 53.1962 149.839 53.1156 149.756C51.9895 151.142 50.4834 152.169 48.782 152.712Z" fill="white"/>
<path d="M50.2823 157.256C50.1691 157.297 50.055 157.335 49.9405 157.37C49.8176 157.408 49.6944 157.445 49.5702 157.478C47.635 157.991 45.5857 157.863 43.7292 157.114C41.8726 156.364 40.3088 155.034 39.2717 153.321C39.2329 153.475 39.1937 153.627 39.1582 153.78C40.2629 155.47 41.872 156.769 43.757 157.492C45.6419 158.215 47.7069 158.326 49.6584 157.809C49.7825 157.776 49.9062 157.741 50.0269 157.702C50.1436 157.667 50.2577 157.63 50.3713 157.591C52.6628 156.785 54.5623 155.138 55.6852 152.984C55.6178 152.871 55.5459 152.76 55.4736 152.648C54.4082 154.801 52.5461 156.454 50.2823 157.256Z" fill="white"/>
<path d="M179.351 152.249L176.197 157.207L178.034 150.752C174.155 146.705 168.786 143.744 168.786 143.744C168.786 143.744 162.174 154.611 163.954 161.295C165.733 167.979 170.328 169.255 175.23 167.95C180.132 166.645 183.484 163.253 181.705 156.569C181.309 155.081 180.448 153.621 179.351 152.249Z" fill="#F0F3F5"/>
<path d="M175.178 157.7L175.266 158.03C176.266 161.865 176.415 165.025 175.708 167.467C175.698 167.502 175.687 167.537 175.677 167.573L175.512 167.524L175.354 167.475C176.155 164.829 175.798 161.485 174.926 158.139C174.899 158.031 174.872 157.922 174.841 157.813C174.46 156.4 173.992 154.993 173.484 153.64C173.445 153.535 173.405 153.428 173.364 153.322C172.684 151.54 171.94 149.862 171.251 148.416C171.203 148.313 171.153 148.211 171.104 148.111C169.927 145.668 168.93 143.937 168.706 143.555C168.68 143.507 168.664 143.482 168.661 143.476L168.804 143.391L168.805 143.388L168.95 143.303C168.954 143.309 169.006 143.394 169.098 143.555C169.444 144.155 170.364 145.787 171.426 147.982C171.473 148.081 171.523 148.183 171.571 148.285C172.131 149.458 172.725 150.778 173.29 152.179C173.433 152.53 173.569 152.878 173.699 153.223C173.741 153.328 173.782 153.435 173.82 153.54C174.37 155.002 174.823 156.389 175.178 157.7Z" fill="white"/>
<path d="M171.425 147.982C171.32 148.026 171.213 148.07 171.104 148.111C170.806 148.224 170.503 148.322 170.196 148.404C168.887 148.754 167.516 148.806 166.185 148.556C166.139 148.661 166.094 148.766 166.047 148.872C167.451 149.148 168.9 149.099 170.283 148.73C170.611 148.642 170.934 148.538 171.251 148.416C171.359 148.375 171.466 148.331 171.571 148.286C172.439 147.916 173.245 147.417 173.963 146.805C173.869 146.734 173.777 146.664 173.687 146.596C173.005 147.167 172.243 147.634 171.425 147.982Z" fill="white"/>
<path d="M173.699 153.223C173.589 153.259 173.477 153.293 173.364 153.323C173.331 153.333 173.295 153.343 173.26 153.352C171.842 153.73 170.352 153.759 168.92 153.437C167.487 153.115 166.154 152.451 165.034 151.502C164.994 151.616 164.954 151.729 164.917 151.844C166.075 152.798 167.444 153.461 168.91 153.78C170.376 154.099 171.897 154.064 173.347 153.678C173.393 153.666 173.439 153.654 173.484 153.64C173.598 153.608 173.709 153.575 173.821 153.54C175.538 152.987 177.061 151.951 178.205 150.556C178.127 150.474 178.049 150.391 177.97 150.31C176.86 151.676 175.376 152.688 173.699 153.223Z" fill="white"/>
<path d="M175.178 157.701C175.066 157.741 174.954 157.778 174.841 157.814C174.72 157.851 174.598 157.887 174.476 157.919C172.569 158.425 170.549 158.299 168.72 157.56C166.89 156.822 165.349 155.511 164.327 153.823C164.289 153.975 164.25 154.125 164.215 154.276C165.304 155.941 166.89 157.221 168.747 157.934C170.605 158.646 172.64 158.755 174.563 158.246C174.685 158.213 174.807 158.179 174.926 158.14C175.041 158.106 175.154 158.069 175.266 158.031C177.524 157.236 179.396 155.613 180.502 153.491C180.436 153.379 180.365 153.27 180.294 153.16C179.244 155.281 177.409 156.91 175.178 157.701Z" fill="white"/>
<path d="M114.078 29.0621C114.078 17.2017 105.809 7.58691 95.6091 7.58691C85.4091 7.58691 77.1404 17.2017 77.1404 29.0621C77.1404 39.819 83.9421 48.7284 92.8173 50.2933V52.3171C92.8173 52.6994 92.9692 53.0661 93.2395 53.3364C93.5098 53.6068 93.8765 53.7586 94.2588 53.7586H96.9594C97.3417 53.7586 97.7083 53.6068 97.9787 53.3364C98.249 53.0661 98.4009 52.6994 98.4009 52.3171V50.2933C107.276 48.7285 114.078 39.819 114.078 29.0621Z" fill="#5D74A2"/>
<path d="M92.3732 52.025C92.9511 51.4823 93.6396 51.0711 94.3914 50.8196C95.1432 50.5682 95.9405 50.4824 96.7285 50.5681C97.5228 50.6602 98.2848 50.9354 98.9545 51.3722C99.6243 51.8089 100.183 52.3952 100.588 53.0849C100.993 53.7541 101.247 54.5033 101.333 55.2806C101.419 56.0578 101.335 56.8445 101.087 57.586C100.601 59.0649 99.5692 60.2956 98.5113 61.4048C97.4015 62.5686 96.1945 63.6418 95.1511 64.8682C93.4306 66.9025 92.2291 69.3238 91.6499 71.9245C91.0706 74.5251 91.1308 77.2274 91.8253 79.7997C92.7408 83.06 94.631 85.9625 97.2427 88.1182C97.5742 88.3892 97.9157 88.6473 98.2671 88.8925C98.6737 89.1771 99.0587 88.5103 98.6555 88.2281C95.8201 86.2222 93.7247 83.3379 92.6933 80.0214C91.9112 77.437 91.8111 74.6942 92.4028 72.0596C92.9945 69.4251 94.2577 66.9884 96.0698 64.9866C97.1704 63.7714 98.4027 62.6836 99.503 61.468C100.557 60.3036 101.518 58.9898 101.93 57.4514C102.138 56.6692 102.19 55.8535 102.082 55.0513C101.974 54.2491 101.708 53.4762 101.3 52.777C100.894 52.0623 100.344 51.4392 99.6863 50.9467C99.0281 50.4542 98.2753 50.103 97.475 49.915C95.8651 49.5651 94.1822 49.8564 92.7836 50.7272C92.441 50.9458 92.1212 51.1983 91.8291 51.4808C91.4717 51.825 92.0163 52.3688 92.3732 52.025V52.025Z" fill="#393C42"/>
<path d="M42.9089 20.0693C37.2579 7.0785 23.6201 0.487079 12.4481 5.34693C1.27598 10.2068 -3.19971 24.6776 2.45127 37.6683C7.57647 49.4504 19.2713 55.9681 29.7379 53.4535L30.7022 55.6702C30.8844 56.0889 31.2254 56.4181 31.6503 56.5854C32.0752 56.7528 32.5492 56.7444 32.9679 56.5623L35.9258 55.2756C36.3446 55.0934 36.6738 54.7524 36.8411 54.3274C37.0084 53.9025 37 53.4286 36.8179 53.0098L35.8536 50.7932C44.8291 44.8505 48.0341 31.8513 42.9089 20.0693Z" fill="#5D74A2"/>
<path d="M30.0199 55.4949C30.3871 54.6491 30.9278 53.8898 31.6072 53.2662C32.2865 52.6427 33.0893 52.1689 33.9634 51.8754C34.8218 51.5863 35.733 51.4884 36.6332 51.5884C37.5334 51.6884 38.4009 51.984 39.1749 52.4544C39.9723 52.9268 40.6598 53.5637 41.1917 54.3227C41.7235 55.0818 42.0874 55.9455 42.2591 56.8562C42.6535 58.967 42.0135 61.1169 41.2863 63.082C40.524 65.142 39.5741 67.1427 39.044 69.2819C38.3064 72.2885 38.2915 75.4271 39.0005 78.4406C39.7096 81.4541 41.1224 84.2567 43.1233 86.619C45.6434 89.5393 48.9625 91.6589 52.6719 92.7169C53.1269 92.8452 53.5867 92.9547 54.05 93.0485C54.5335 93.1464 54.7404 92.4048 54.2546 92.3065C50.3951 91.512 46.8778 89.5378 44.1893 86.6571C41.3392 83.5758 39.6175 79.6195 39.3051 75.4339C39.1378 73.3133 39.3321 71.1796 39.8799 69.1241C40.4646 66.955 41.4543 64.9243 42.2005 62.8109C42.9125 60.7942 43.4171 58.6286 42.9698 56.4945C42.5585 54.6155 41.4183 52.9765 39.7995 51.9375C39.0237 51.426 38.154 51.0737 37.2408 50.9012C36.3277 50.7287 35.3894 50.7394 34.4804 50.9327C32.6242 51.3532 30.9978 52.4651 29.9323 54.0422C29.6731 54.4354 29.4539 54.8535 29.2779 55.2904C29.0887 55.7475 29.8329 55.9468 30.0199 55.4949L30.0199 55.4949Z" fill="#393C42"/>
<path d="M200.764 176.979L204.912 176.979L206.885 160.979L200.763 160.98L200.764 176.979Z" fill="#EACC9E"/>
<path d="M199.706 175.625L207.874 175.625H207.875C209.255 175.625 210.579 176.174 211.556 177.15C212.532 178.126 213.08 179.45 213.08 180.831V181L199.706 181L199.706 175.625Z" fill="#393C42"/>
<path d="M176.213 173.452L180.168 174.702L186.874 160.044L181.038 158.197L176.213 173.452Z" fill="#EACC9E"/>
<path d="M175.612 171.842L183.401 174.305L183.401 174.305C184.717 174.722 185.814 175.644 186.451 176.869C187.087 178.095 187.21 179.522 186.794 180.839L186.743 181L173.991 176.967L175.612 171.842Z" fill="#393C42"/>
<path d="M185.552 103.909L183.25 110.401L183.185 145.448L176.657 169.444L184.67 171.68L193.522 149.054L196.361 129.181L200.102 149.17L199.587 172.928H207.994L208.629 136.317C208.807 126.035 207.008 115.814 203.329 106.211V106.211L185.552 103.909Z" fill="#393C42"/>
<path d="M182.811 77.6123H196.4L202.078 83.2904L203.774 106.761L183.25 110.064L176.657 87.6695L180.248 78.152L182.811 77.6123Z" fill="#B4B9C4"/>
<path d="M177.924 87.8937L157.001 80.0217L156.457 76.7676L169.652 65.6025L174.043 68.8966L166.083 77.6126L180.248 78.1523L177.924 87.8937Z" fill="#B4B9C4"/>
<path d="M172.189 70.169C174.058 70.169 175.573 68.6543 175.573 66.7857C175.573 64.9171 174.058 63.4023 172.189 63.4023C170.321 63.4023 168.806 64.9171 168.806 66.7857C168.806 68.6543 170.321 70.169 172.189 70.169Z" fill="#EACC9E"/>
<path d="M180.036 71.048L181.565 64.1541C181.833 62.9399 182.337 61.7905 183.05 60.7715C183.762 59.7525 184.669 58.8839 185.717 58.2154C186.765 57.5469 187.935 57.0916 189.16 56.8755C190.384 56.6594 191.639 56.6867 192.853 56.9559C194.067 57.2251 195.216 57.7309 196.234 58.4444C197.252 59.1579 198.12 60.065 198.788 61.1141C199.455 62.1631 199.909 63.3334 200.124 64.558C200.339 65.7827 200.311 67.0377 200.04 68.2514L198.511 75.1453C198.438 75.4742 198.237 75.7606 197.953 75.9417C197.669 76.1227 197.324 76.1836 196.995 76.111L181.001 72.5641C180.673 72.4908 180.386 72.29 180.205 72.0057C180.024 71.7215 179.963 71.3771 180.036 71.048Z" fill="#393C42"/>
<path d="M190.569 73.6459C194.249 72.5796 196.367 68.7319 195.301 65.0518C194.235 61.3718 190.387 59.2529 186.707 60.3192C183.027 61.3856 180.908 65.2333 181.974 68.9133C183.041 72.5934 186.889 74.7123 190.569 73.6459Z" fill="#EACC9E"/>
<path d="M179.257 64.2204C179.689 62.2834 180.871 60.5969 182.545 59.5307C184.219 58.4646 186.247 58.1059 188.185 58.5334L189.564 58.8391C191.501 59.271 193.187 60.4535 194.253 62.1273C195.32 63.8011 195.678 65.8294 195.251 67.7673L195.22 67.9052L192.306 67.259L191.93 64.2557L191.114 66.9945L189.608 66.6605L189.418 65.1452L189.006 66.5271L179.226 64.3582L179.257 64.2204Z" fill="#393C42"/>
<path d="M186.262 74.5439C186.166 74.3283 186.133 74.0901 186.167 73.8566C186.201 73.6232 186.3 73.404 186.452 73.2244C188.53 70.7693 191.714 66.0878 189.701 62.3187L189.557 62.0479L197.44 63.7961L194.815 75.6316L187.374 75.307C187.298 75.3037 187.223 75.2939 187.15 75.2777C186.954 75.2343 186.772 75.1452 186.617 75.0176C186.463 74.8901 186.341 74.7277 186.262 74.5439Z" fill="#393C42"/>
<path d="M195.859 77.7539L217.991 80.9008L219.229 83.9594L208.769 97.7204L203.768 95.4574L209.648 85.2224L195.703 87.7678L195.859 77.7539Z" fill="#B4B9C4"/>
<path d="M228.994 33.1402C228.994 18.9736 219.117 7.48926 206.934 7.48926C194.751 7.48926 184.874 18.9736 184.874 33.1402C184.874 45.9887 192.999 56.6305 203.599 58.4997V60.917C203.599 61.3736 203.781 61.8116 204.104 62.1345C204.427 62.4574 204.865 62.6388 205.321 62.6388H208.547C209.004 62.6388 209.442 62.4574 209.764 62.1345C210.087 61.8116 210.269 61.3736 210.269 60.917V58.4997C220.87 56.6305 228.994 45.9887 228.994 33.1402Z" fill="#5D74A2"/>
<path d="M203.016 60.5146C203.717 59.8563 204.552 59.358 205.464 59.0543C206.375 58.7505 207.343 58.6485 208.298 58.7554C209.236 58.866 210.137 59.1886 210.932 59.699C211.728 60.2093 212.396 60.8939 212.888 61.701C213.388 62.4974 213.71 63.3928 213.831 64.3255C213.952 65.2582 213.869 66.206 213.589 67.1038C213.045 68.8661 211.85 70.3417 210.605 71.6643C209.277 73.0752 207.821 74.3654 206.551 75.8314C204.481 78.2375 203.026 81.1105 202.311 84.2033C201.597 87.296 201.644 90.5161 202.449 93.5866C203.526 97.533 205.802 101.048 208.962 103.645C209.346 103.958 209.741 104.256 210.147 104.539C210.554 104.823 210.939 104.157 210.535 103.875C207.151 101.483 204.645 98.0469 203.4 94.0941C202.455 91.0086 202.321 87.7316 203.011 84.5793C203.701 81.4271 205.192 78.5059 207.34 76.0977C208.646 74.6404 210.116 73.3421 211.437 71.8988C212.701 70.5166 213.862 68.9649 214.382 67.1385C214.643 66.2161 214.719 65.2509 214.605 64.2989C214.491 63.3469 214.19 62.427 213.718 61.5923C213.248 60.7387 212.607 59.9914 211.835 59.3972C211.063 58.803 210.176 58.3748 209.231 58.1394C207.309 57.6977 205.291 58.0324 203.615 59.0706C203.204 59.3305 202.821 59.6321 202.472 59.9704C202.115 60.3152 202.66 60.8589 203.016 60.5146Z" fill="#393C42"/>
<path d="M205.684 101.634C207.553 101.634 209.068 100.119 209.068 98.2505C209.068 96.382 207.553 94.8672 205.684 94.8672C203.816 94.8672 202.301 96.382 202.301 98.2505C202.301 100.119 203.816 101.634 205.684 101.634Z" fill="#EACC9E"/>
<path d="M170.428 67.7354C170.25 68.016 169.82 67.9752 169.579 67.7998C169.243 67.5563 169.352 67.0872 169.583 66.81C170.317 65.9292 171.53 66.8592 171.694 67.734C171.755 68.1605 171.689 68.5955 171.505 68.9851C171.321 69.3746 171.027 69.7016 170.658 69.9254C169.821 70.4215 168.734 70.1727 168.014 69.5789C166.512 68.3403 166.921 65.8604 168.589 64.9643C169.653 64.3924 170.999 64.6434 172.048 65.1224C173.228 65.6617 174.243 66.4882 175.334 67.1772C177.729 68.6763 180.438 69.6014 183.25 69.8801C183.742 69.9303 183.739 69.1604 183.25 69.1106C181.692 68.9495 180.162 68.5812 178.702 68.0154C177.257 67.4297 175.885 66.6768 174.615 65.7722C173.33 64.8912 171.987 64.0355 170.396 63.8899C169.755 63.815 169.104 63.9113 168.512 64.1691C167.919 64.427 167.406 64.8371 167.023 65.3578C166.683 65.8238 166.455 66.3622 166.357 66.931C166.26 67.4997 166.296 68.0833 166.461 68.6359C166.661 69.2139 167.011 69.7285 167.474 70.1275C167.937 70.5265 168.498 70.7956 169.1 70.9074C169.678 71.0167 170.277 70.9427 170.811 70.6957C171.346 70.4486 171.79 70.0409 172.082 69.5293C172.668 68.5168 172.649 67.1568 171.764 66.3174C171.511 66.0598 171.194 65.8741 170.845 65.7792C170.496 65.6844 170.129 65.6838 169.78 65.7776C169.458 65.8862 169.175 66.0862 168.965 66.3531C168.756 66.62 168.628 66.9422 168.599 67.2804C168.514 68.5946 170.379 69.2518 171.092 68.1238C171.358 67.704 170.692 67.3174 170.428 67.7354Z" fill="#393C42"/>
<path d="M16.4728 109.092L15.4565 110.367L11.8618 108.24L12.8781 106.965L16.4728 109.092Z" fill="#B4B9C4"/>
<path d="M20.2236 114.57L21.1214 115.91L17.345 117.788L16.4473 116.449L20.2236 114.57Z" fill="#B4B9C4"/>
<path d="M24.1329 108.746L25.9269 108.809L25.7484 112.563L23.9543 112.5L24.1329 108.746Z" fill="#B4B9C4"/>
<path d="M58.7968 7.51344L57.7805 8.78855L54.1858 6.66208L55.2021 5.38672L58.7968 7.51344Z" fill="#B4B9C4"/>
<path d="M62.5478 12.9922L63.4456 14.3319L59.6693 16.2104L58.7715 14.8706L62.5478 12.9922Z" fill="#B4B9C4"/>
<path d="M66.4571 7.16797L68.2511 7.23133L68.0726 10.9851L66.2786 10.9217L66.4571 7.16797Z" fill="#B4B9C4"/>
<path d="M158.579 20.8523L157.563 22.1274L153.968 20.001L154.984 18.7256L158.579 20.8523Z" fill="#B4B9C4"/>
<path d="M162.33 26.3311L163.228 27.6708L159.451 29.5492L158.554 28.2095L162.33 26.3311Z" fill="#B4B9C4"/>
<path d="M166.239 20.5068L168.033 20.5702L167.855 24.324L166.061 24.2606L166.239 20.5068Z" fill="#B4B9C4"/>
<path d="M128.054 2.12672L127.038 3.40183L123.443 1.27537L124.46 0L128.054 2.12672Z" fill="#B4B9C4"/>
<path d="M131.805 7.60547L132.703 8.94522L128.927 10.8236L128.029 9.48389L131.805 7.60547Z" fill="#B4B9C4"/>
<path d="M135.715 1.78125L137.509 1.84461L137.33 5.59837L135.536 5.53501L135.715 1.78125Z" fill="#B4B9C4"/>
<path d="M159.088 97.9866L158.072 99.4668L161.667 101.935L162.683 100.455L159.088 97.9866Z" fill="#B4B9C4"/>
<path d="M162.658 108.995L163.555 110.55L167.332 108.369L166.434 106.814L162.658 108.995Z" fill="#B4B9C4"/>
<path d="M170.165 104.411L171.959 104.484L172.137 100.127L170.343 100.054L170.165 104.411Z" fill="#B4B9C4"/>
<path d="M82.8325 165.159L85.9401 164.679L83.8095 139.849L76.8838 141.131L82.8325 165.159Z" fill="#EACC9E"/>
<path d="M81.8828 164.267L88.0032 163.321L88.0035 163.321C89.0379 163.161 90.0935 163.418 90.9381 164.037C91.7826 164.655 92.3469 165.584 92.5069 166.618L92.5265 166.745L82.5056 168.294L81.8828 164.267Z" fill="#393C42"/>
<path d="M50.1694 164.851L53.3112 164.985L57.1326 142.926L50.2069 142.926L50.1694 164.851Z" fill="#EACC9E"/>
<path d="M49.4114 163.791L55.599 164.055H55.5993C56.645 164.099 57.6302 164.557 58.3382 165.328C59.0461 166.099 59.4189 167.12 59.3743 168.166L59.3689 168.294L49.238 167.862L49.4114 163.791Z" fill="#393C42"/>
<path d="M56.3551 92.9822C56.2068 92.9405 56.0551 92.9122 55.9017 92.8977L57.8604 76.8657L64.5063 62.7915C64.9244 61.9062 64.9912 60.8952 64.6933 59.9625C64.3953 59.0298 63.7548 58.2449 62.9008 57.7659C62.0468 57.2869 61.043 57.1496 60.0918 57.3817C59.1406 57.6138 58.3128 58.1979 57.7753 59.0163V59.0163C56.0335 61.6684 54.7159 64.5759 53.87 67.634L51.0779 77.7293L53.1196 95.0418C53.0413 95.5298 53.1056 96.03 53.3049 96.4823C53.5042 96.9345 53.83 97.3195 54.243 97.591C54.6559 97.8624 55.1386 98.0088 55.6328 98.0124C56.127 98.016 56.6117 97.8768 57.0286 97.6114C57.4455 97.346 57.7768 96.9658 57.9827 96.5165C58.1886 96.0672 58.2603 95.568 58.1892 95.079C58.118 94.5899 57.9071 94.1318 57.5817 93.7598C57.2563 93.3878 56.8304 93.1178 56.3552 92.9822H56.3551Z" fill="#EACC9E"/>
<path d="M60.3904 78.2233L51.9939 68.6179L56.1535 58.8342C56.6982 57.553 57.722 56.5354 59.0065 55.9986C60.291 55.4618 61.7344 55.4482 63.0287 55.9608C64.3231 56.4734 65.3658 57.4716 65.9344 58.7423C66.503 60.0131 66.5525 61.4557 66.0723 62.7624L60.3904 78.2233Z" fill="#393C42"/>
<path d="M74.348 47.6018C76.3681 43.9064 75.01 39.273 71.3145 37.2529C67.6191 35.2328 62.9857 36.5909 60.9656 40.2863C58.9455 43.9818 60.3036 48.6152 63.9991 50.6353C67.6945 52.6554 72.3279 51.2973 74.348 47.6018Z" fill="#EACC9E"/>
<path d="M68.9321 34.6797H64.0061C60.7766 34.6797 58.1587 37.6249 58.1587 41.258L58.3866 50.0703C61.8761 50.5044 65.2891 51.4172 68.5293 52.783L68.9891 50.8196L69.896 53.4054C70.7026 53.7962 71.5024 54.2236 72.2953 54.6874C71.3698 50.3393 70.9889 46.0013 71.6243 42.6315H73.2928V40.8056L73.8591 42.6315H76.8839V42.6315C76.8839 41.5872 76.6782 40.5532 76.2786 39.5884C75.879 38.6237 75.2933 37.7471 74.5549 37.0087C73.8165 36.2703 72.9399 35.6846 71.9751 35.285C71.0104 34.8854 69.9763 34.6797 68.9321 34.6797Z" fill="#393C42"/>
<path d="M84.9938 141.198L84.2801 141.369L83.6812 130.229L79.3205 96.8832L74.3186 84.186L76.7554 75.3364C76.7554 75.3364 79.577 69.1802 72.523 64.4347L66.8798 54.9439C62.9817 52.3951 59.7744 54.0617 58.0648 58.394C56.5751 62.1688 55.4187 66.9443 56.1064 71.8735C57.6471 82.9151 58.928 84.186 58.928 84.186C58.928 84.186 49.3089 94.8311 51.361 108.426L50.2173 143.625L49.171 143.583L49.0564 146.378L58.1974 146.753L58.312 143.957L57.5538 143.926L60.8518 129.973L65.7255 111.504L74.1903 134.077L77.0375 143.114L76.0995 143.34L76.7547 146.06L85.649 143.918L84.9938 141.198Z" fill="#393C42"/>
<path d="M91.2755 77.9892C91.172 78.1033 91.0789 78.2264 90.9974 78.3571L77.5298 69.4416L67.908 57.2075C67.3028 56.4379 66.4282 55.9264 65.4607 55.7762C64.4932 55.6261 63.5047 55.8484 62.6946 56.3984C61.8846 56.9484 61.3132 57.7851 61.0958 58.7397C60.8784 59.6944 61.0312 60.696 61.5232 61.5425C63.1175 64.2858 65.1299 66.7636 67.4879 68.8867L75.2719 75.8953L91.6725 81.8041C92.0741 82.0922 92.5503 82.2581 93.044 82.2819C93.5376 82.3056 94.0276 82.1863 94.455 81.9381C94.8823 81.6899 95.2289 81.3235 95.453 80.883C95.677 80.4425 95.769 79.9467 95.7178 79.4551C95.6667 78.9635 95.4746 78.4972 95.1646 78.1123C94.8547 77.7274 94.4401 77.4402 93.9708 77.2853C93.5015 77.1304 92.9974 77.1145 92.5193 77.2394C92.0411 77.3642 91.6092 77.6246 91.2755 77.9892H91.2755Z" fill="#EACC9E"/>
<path d="M79.8742 67.7851L67.5293 71.0051L60.635 62.9123C59.7322 61.8526 59.2793 60.482 59.3729 59.093C59.4666 57.704 60.0994 56.4067 61.1363 55.4777C62.1732 54.5488 63.5321 54.062 64.923 54.121C66.3139 54.1801 67.6267 54.7804 68.5811 55.7939L79.8742 67.7851Z" fill="#393C42"/>
<path d="M175.56 168.555H9.52246C9.44146 168.555 9.36377 168.523 9.3065 168.466C9.24922 168.408 9.21704 168.331 9.21704 168.25C9.21704 168.169 9.24922 168.091 9.3065 168.034C9.36377 167.977 9.44146 167.944 9.52246 167.944H175.56C175.641 167.944 175.718 167.977 175.776 168.034C175.833 168.091 175.865 168.169 175.865 168.25C175.865 168.331 175.833 168.408 175.776 168.466C175.718 168.523 175.641 168.555 175.56 168.555Z" fill="#B4B9C4"/>
</g>
<defs>
<clipPath id="clip0_1217_4576">
<rect width="228.988" height="181" fill="white" transform="translate(0.00585938)"/>
</clipPath>
</defs>
</svg>
